<svg height="477pt" viewBox="0 0 477.8314 477" width="477pt" xmlns="http://www.w3.org/2000/svg"><path d="m447.535156 18.277344-7.703125-1.917969c-85.363281-21.257813-174.636719-21.257813-260 0l-7.695312 1.917969c-17.820313 4.433594-30.324219 20.445312-30.304688 38.808594v55.703124c-39.769531 11.265626-78.113281 27.074219-114.265625 47.113282l-6.984375 3.847656c-16.066406 8.875-23.992187 27.578125-19.199219 45.296875l23.28125 87.054687c20.988282 78.132813 78.746094 141.125 154.765626 168.800782l24 8.800781c28.46875 10.238281 60.300781 1.691406 79.808593-21.433594l16.386719-19.574219c15.253906-18.148437 27.773438-38.425781 37.167969-60.195312 5.042969-1.957031 9.851562-4.488281 14.328125-7.535156l20.925781-14.648438c66.269531-46.433594 105.746094-122.257812 105.785156-203.175781v-90.054687c.019531-18.359376-12.480469-34.371094-30.296875-38.808594zm-160.160156 404.136718-16.390625 19.589844c-15.179687 17.984375-39.9375 24.632813-62.082031 16.664063l-24-8.796875c-71.113282-25.894532-125.144532-84.824219-144.78125-157.914063l-23.289063-87.054687c-2.867187-10.617188 1.878907-21.816406 11.503907-27.136719l6.976562-3.847656c33.753906-18.714844 69.476562-33.632813 106.519531-44.480469v17.703125c.054688 71.660156 31.082031 139.792969 85.09375 186.882813-14.070312 5.71875-28.925781 9.289062-44.0625 10.582031l-60.160156 4.878906c-3.640625.289063-6.625 3.007813-7.25 6.609375s1.269531 7.167969 4.601563 8.664062l79.753906 36c17.367187 7.871094 37.875 2.386719 49-13.105468l17.453125-24.277344 2.28125 1.597656c12.105469 8.453125 26.523437 12.980469 41.289062 12.960938 2.398438 0 4.71875-.304688 7.078125-.535156-8.035156 16.117187-17.949218 31.226562-29.535156 45.015624zm-46.34375-76.992187c2.183594 1.601563 4.3125 3.328125 6.558594 4.894531l5.539062 3.875-17.34375 24.132813c-6.679687 9.285156-18.984375 12.566406-29.402344 7.839843l-51.496093-23.199218 29.265625-2.398438c19.703125-1.652344 38.960937-6.777344 56.878906-15.144531zm220.800781-198.28125c-.03125 75.699219-36.960937 146.625-98.953125 190.066406l-20.925781 14.648438c-19.304687 13.449219-44.941406 13.449219-64.242187 0l-20.917969-14.648438c-61.996094-43.4375-98.929688-114.367187-98.960938-190.066406v-90.054687c0-11.011719 7.492188-20.609376 18.175781-23.28125l7.703126-1.925782c82.816406-20.628906 169.425781-20.628906 252.242187 0l7.703125 1.925782c10.679688 2.671874 18.175781 12.269531 18.175781 23.28125zm0 0"/><path d="m280.175781 149.757812 10.910157-11.710937c-25.011719-24.953125-65.5-24.953125-90.511719 0l-.398438.398437 11.710938 10.914063c9.070312-9.074219 21.398437-14.140625 34.226562-14.066406 12.832031.078125 25.097657 5.285156 34.0625 14.464843zm0 0"/><path d="m328.574219 138.046875-.398438.398437 11.710938 10.914063c9.070312-9.074219 21.398437-14.140625 34.226562-14.066406 12.832031.078125 25.097657 5.285156 34.0625 14.464843l10.910157-11.710937c-25.011719-24.953125-65.5-24.953125-90.511719 0zm0 0"/><path d="m114.070312 265.703125c12.507813-3.355469 25.839844-1.515625 36.96875 5.101563l7.457032-14.167969c-30.609375-17.671875-69.75-7.1875-87.425782 23.417969l-.277343.488281 6.917969 4 7.199218 3.503906c6.34375-11.046875 16.84375-19.09375 29.160156-22.34375zm0 0"/><path d="m396.398438 224.230469-59.367188 10.800781c-17.984375 3.28125-36.414062 3.28125-54.398438 0l-59.378906-10.800781c-3.585937-.652344-7.164062 1.203125-8.691406 4.515625-1.53125 3.3125-.628906 7.238281 2.195312 9.546875l67.746094 55.410156c14.75 12.007813 35.90625 12.007813 50.65625 0l67.734375-55.425781c2.824219-2.308594 3.730469-6.234375 2.199219-9.546875-1.527344-3.3125-5.105469-5.167969-8.695312-4.515625zm-71.367188 57.101562c-8.847656 7.214844-21.550781 7.214844-30.398438 0l-43.792968-35.824219 28.933594 5.257813c19.871093 3.632813 40.230468 3.632813 60.097656 0l28.9375-5.257813zm0 0"/></svg>