<?xml version="1.0"?>
<svg xmlns="http://www.w3.org/2000/svg" id="Icons" viewBox="0 0 74 74" width="512" height="512"><path d="M61.05,62.05a24.794,24.794,0,0,1-17.719-7.365,1,1,0,1,1,1.419-1.409,22.79,22.79,0,0,0,15.278,6.752A23.11,23.11,0,0,0,41.3,38.4a1,1,0,1,1,.37-1.966A25.106,25.106,0,0,1,62.05,61.05,1,1,0,0,1,61.05,62.05Z"/><path d="M12.95,62.05a1,1,0,0,1-1-1,24.794,24.794,0,0,1,7.365-17.719,1,1,0,1,1,1.409,1.419,22.79,22.79,0,0,0-6.752,15.278A23.11,23.11,0,0,0,35.6,41.3a1,1,0,1,1,1.966.37A25.106,25.106,0,0,1,12.95,62.05Z"/><path d="M32.521,37.58a1.011,1.011,0,0,1-.186-.017A25.106,25.106,0,0,1,11.95,12.95a1,1,0,0,1,1-1,24.794,24.794,0,0,1,17.719,7.365,1,1,0,1,1-1.419,1.409,22.79,22.79,0,0,0-15.278-6.752A23.11,23.11,0,0,0,32.7,35.6a1,1,0,0,1-.184,1.983Z"/><path d="M37.421,33.52a1.011,1.011,0,0,1-.186-.017,1,1,0,0,1-.8-1.168A25.106,25.106,0,0,1,61.05,11.95a1,1,0,0,1,1,1,24.794,24.794,0,0,1-7.365,17.719,1,1,0,1,1-1.409-1.419,22.79,22.79,0,0,0,6.752-15.278A23.11,23.11,0,0,0,38.4,32.7,1,1,0,0,1,37.421,33.52Z"/><path d="M37,72a1,1,0,0,1-.707-.293A24.9,24.9,0,0,1,28.96,53.98a1,1,0,0,1,2,0A22.9,22.9,0,0,0,37,69.554a23.057,23.057,0,0,0,2.045-28.53A1,1,0,0,1,40.7,39.9a25.054,25.054,0,0,1-2.988,31.812A1,1,0,0,1,37,72Z"/><path d="M20.02,45.04A24.9,24.9,0,0,1,2.293,37.707a1,1,0,0,1,0-1.414A24.9,24.9,0,0,1,20.02,28.96a1,1,0,0,1,0,2A22.9,22.9,0,0,0,4.446,37a23.057,23.057,0,0,0,28.53,2.045A1,1,0,1,1,34.1,40.7,24.84,24.84,0,0,1,20.02,45.04Z"/><path d="M34.131,34.54A1,1,0,0,1,33.3,34.1,25.054,25.054,0,0,1,36.293,2.293a1,1,0,0,1,1.414,0A24.9,24.9,0,0,1,45.04,20.02a1,1,0,0,1-2,0A22.9,22.9,0,0,0,37,4.446a23.057,23.057,0,0,0-2.045,28.53,1,1,0,0,1-.824,1.564Z"/><path d="M53.98,45.04a1,1,0,0,1,0-2A22.9,22.9,0,0,0,69.554,37a23.057,23.057,0,0,0-28.53-2.045A1,1,0,0,1,39.9,33.3a25.054,25.054,0,0,1,31.812,2.988,1,1,0,0,1,0,1.414A24.9,24.9,0,0,1,53.98,45.04Z"/><path d="M37,42.5A5.5,5.5,0,1,1,42.5,37,5.506,5.506,0,0,1,37,42.5Zm0-9A3.5,3.5,0,1,0,40.5,37,3.5,3.5,0,0,0,37,33.5Z"/></svg>
