<svg id="Icons" height="512" viewBox="0 0 74 74" width="512" xmlns="http://www.w3.org/2000/svg"><path d="m50.907 21.183a1 1 0 0 1 -1-1v-1.746a12.911 12.911 0 0 0 -10.86-12.737 1 1 0 1 1 .311-1.975 14.906 14.906 0 0 1 12.549 14.712v1.746a1 1 0 0 1 -1 1z"/><path d="m23.089 21.183a1 1 0 0 1 -1-1v-1.746a14.82 14.82 0 0 1 12.548-14.713 1 1 0 1 1 .313 1.976 12.83 12.83 0 0 0 -10.861 12.737v1.746a1 1 0 0 1 -1 1z"/><path d="m51.462 25.885h-28.924a1.923 1.923 0 0 1 -1.932-1.909v-2.882a1.923 1.923 0 0 1 1.932-1.909h28.924a1.923 1.923 0 0 1 1.932 1.909v2.882a1.923 1.923 0 0 1 -1.932 1.909zm-28.856-2h28.788v-2.7h-28.788z"/><path d="m34.793 11.629a1 1 0 0 1 -1-1v-6.977a1.65 1.65 0 0 1 1.644-1.652h3.122a1.65 1.65 0 0 1 1.641 1.652v6.969a1 1 0 1 1 -2 0v-6.621h-2.41v6.629a1 1 0 0 1 -.997 1z"/><path d="m37 17.283a4.261 4.261 0 1 1 4.26-4.261 4.265 4.265 0 0 1 -4.26 4.261zm0-6.521a2.261 2.261 0 1 0 2.26 2.26 2.263 2.263 0 0 0 -2.26-2.26z"/><path d="m37 45.316a14.325 14.325 0 0 1 -14.309-14.309v-6.122a1 1 0 0 1 1-1h26.618a1 1 0 0 1 1 1v6.122a14.325 14.325 0 0 1 -14.309 14.309zm-12.309-19.431v5.122a12.309 12.309 0 1 0 24.618 0v-5.122z"/><path d="m65.929 72h-57.858a1 1 0 0 1 -1-1v-9.727a12.252 12.252 0 0 1 9.249-11.887l11.359-2.881a2.165 2.165 0 0 0 1.634-2.1v-1.605a1 1 0 0 1 2 0v1.607a4.162 4.162 0 0 1 -3.142 4.038l-11.359 2.88a10.254 10.254 0 0 0 -7.741 9.948v8.727h55.858v-8.727a10.254 10.254 0 0 0 -7.74-9.948l-11.36-2.882a4.162 4.162 0 0 1 -3.142-4.038v-1.605a1 1 0 0 1 2 0v1.607a2.165 2.165 0 0 0 1.634 2.1l11.36 2.881a12.253 12.253 0 0 1 9.248 11.887v9.725a1 1 0 0 1 -1 1z"/><path d="m56.329 72a1 1 0 0 1 -1-1v-20.147l-8.646-2.194-9 8.482a1 1 0 0 1 -1.372 0l-9-8.482-8.646 2.194v20.147a1 1 0 0 1 -2 0v-20.925a1 1 0 0 1 .754-.969l9.932-2.521a1 1 0 0 1 .932.242l8.717 8.212 8.711-8.212a1 1 0 0 1 .932-.242l9.932 2.52a1 1 0 0 1 .754.97v20.925a1 1 0 0 1 -1 1z"/><path d="m27.856 67.005h-4.186a1.984 1.984 0 0 1 -1.982-1.982v-5.168a1 1 0 0 1 1-1h6.15a1 1 0 0 1 1 1v5.168a1.984 1.984 0 0 1 -1.982 1.982zm-4.168-6.15v4.168l4.15-.018v-4.15z"/><path d="m29.838 60.855h-8.15a1 1 0 1 1 0-2h8.15a1 1 0 0 1 0 2z"/><path d="m50.33 67.005h-4.186a1.984 1.984 0 0 1 -1.982-1.982v-5.168a1 1 0 0 1 1-1h6.15a1 1 0 0 1 1 1v5.168a1.984 1.984 0 0 1 -1.982 1.982zm-4.168-2h4.168l-.015-4.15h-4.153z"/><path d="m52.312 60.855h-8.15a1 1 0 0 1 0-2h8.15a1 1 0 0 1 0 2z"/></svg>