<svg id="Capa_1" enable-background="new 0 0 512 512" height="512" viewBox="0 0 512 512" width="512" xmlns="http://www.w3.org/2000/svg"><g><path d="m419.586 391.392c3.606-6.259 4.57-13.994 1.976-21.327-4.73-13.298-19.57-20.226-33.083-15.445-.04.014-.079.028-.119.043l-24.724 9.217c.179-3.273-.243-6.608-1.375-9.824-2.302-6.475-7.003-11.641-13.234-14.547-6.22-2.901-13.275-3.209-19.861-.865-.036.013-.072.026-.107.039l-46.074 17.18c.111-3.028-.345-6.076-1.387-9.01-2.169-6.108-6.594-11.008-12.461-13.796-5.98-2.843-12.764-3.163-19.189-.873l-84.202 31.2c-3.249-1.198-6.256-2.444-9.172-3.659-18.913-7.883-32.974-12.245-68.988-.225-1.766-9.335-9.97-16.422-19.811-16.422h-39.564c-11.125 0-20.176 9.051-20.176 20.176v38.226c0 4.174 3.383 7.558 7.557 7.558s7.557-3.384 7.557-7.558v-38.226c0-2.79 2.271-5.061 5.062-5.061h39.563c2.743 0 5.061 2.317 5.061 5.061v115.673c0 2.744-2.318 5.061-5.061 5.061h-39.563c-2.79 0-5.062-2.27-5.062-5.061v-42.669c0-4.174-3.383-7.558-7.557-7.558s-7.557 3.384-7.557 7.558v42.669c0 11.125 9.051 20.176 20.176 20.176h39.563c9.373 0 17.249-6.434 19.505-15.11 21.734.669 33.875 2.971 59.678 10.692l45.356 13.562c8.431 2.507 19.678 3.753 30.981 3.753 11.845 0 23.753-1.369 32.535-4.09 23.233-7.177 60.209-21.272 74.845-27.223l90.442-36.805c6.676-2.728 11.66-8.244 14.031-15.533 2.766-8.501 1.541-18.541-3.19-26.188-3.044-4.944-7.314-8.566-12.371-10.769zm-69.791-6.219c.34-.1.676-.225 1.005-.375l42.774-15.947c5.748-2.004 11.778.746 13.743 6.266 1.925 5.445-.941 11.443-6.389 13.37-.038.014-.077.028-.115.042l-108.844 40.494c-.004-2.355-.247-4.738-.774-7.11-1.066-4.804-3.137-9.1-5.984-12.662zm-15.516-32.303c2.808-.985 5.775-.865 8.361.34 2.534 1.181 4.444 3.281 5.372 5.889 1.539 4.371-.034 9.295-3.737 12l-75.083 27.992-30.587-10.547zm-79.17-6.479c2.53-.901 5.207-.79 7.539.319 2.217 1.054 3.889 2.901 4.706 5.202.823 2.32.683 4.839-.394 7.093-1.08 2.26-2.96 3.961-5.295 4.789-.17.061-.332.134-.496.205l-45.04 16.795-27.902-9.621zm165.664 77.282c-.688 2.116-2.179 4.912-5.364 6.213l-90.431 36.801c-14.422 5.865-50.82 19.742-73.617 26.784-14.534 4.504-40.113 4.637-54.73.292l-45.343-13.558c-26.971-8.07-40.364-10.588-63.34-11.311v-93.534c36.097-12.793 46.873-8.323 62.809-1.681 3.868 1.612 116.071 40.587 116.071 40.587.08.028.161.054.242.079 6.742 2.073 8.797 8.275 9.367 10.845.956 4.307.299 8.627-1.701 12.06-.019.032-.037.066-.055.098-.718 1.211-1.601 2.311-2.645 3.256-5.668 5.124-15.662 5.676-28.149 1.553l-63.802-21.05c-3.962-1.309-8.237.846-9.545 4.809-1.307 3.964.846 8.237 4.81 9.545l63.8 21.049c7.586 2.505 14.09 3.481 19.622 3.481 12.05 0 19.482-4.632 23.402-8.176 1.515-1.37 2.866-2.889 4.047-4.526l110.917-41.265c.104-.035.209-.062.312-.101 7.464-2.846 17.071-3.247 21.642 4.177 2.428 3.922 3.087 9.25 1.681 13.573z"/><path d="m501.607 112.467-54.113-101.765c-2.516-4.747-6.743-8.23-11.901-9.808-5.151-1.576-10.599-1.056-15.327 1.462l-34.842 18.518c-9.603 5.117-13.348 16.952-8.577 26.639-3.734 2.013-7.16 3.883-10.312 5.603-27.778 15.159-36.161 19.734-73.67 24.204-4.145.494-7.104 4.254-6.61 8.399.458 3.841 3.72 6.664 7.495 6.664.299 0 .6-.018.904-.054 40.402-4.815 50.945-10.569 79.121-25.945 3.105-1.694 6.475-3.533 10.139-5.509l35.906 67.541c-14.518 8.584-23.889 17.525-31.435 29.748-12.613 20.464-28.156 28.344-43.187 35.965-6.702 3.398-13.631 6.911-20.087 11.43l-61.177 42.888c-1.635 1.006-3.226 1.78-4.737 2.32-.129.038-.258.078-.385.124-2.424.807-4.633.999-6.459.509-2.467-.661-4.606-2.663-6.353-5.947-4.356-8.182 2.17-32.31 14.042-43.988l38.309-37.741c.158-.155.309-.318.452-.486 6.572-7.724 6.261-13.978 4.843-17.865-2.374-6.506-9.246-10.755-20.433-12.631-31.846-5.325-44.18 2.692-51.772 13.221-6.905-4.038-14.345-7.147-22.205-9.272-4.425-1.201-8.922-2.055-13.455-2.574l.812-1.504c13.63-25.314 34.179-32.736 62.917-36.508 4.139-.543 7.053-4.338 6.51-8.476-.544-4.139-4.342-7.053-8.477-6.51-28.162 3.696-56.649 11.624-74.255 44.322l-4.509 8.354c-17.589 1.351-34.761 7.934-48.78 18.796-15.719 12.178-26.767 28.783-31.952 48.016-13.03 48.275 15.643 98.151 63.918 111.181 7.888 2.127 15.844 3.15 23.694 3.149 34.089-.001 66.139-19.289 81.536-51.131 1.628-.744 3.263-1.614 4.9-2.634.115-.072.228-.147.34-.225l61.349-43.008c5.574-3.902 11.731-7.024 18.25-10.329 16.111-8.169 34.372-17.427 49.215-41.511 6.054-9.804 13.754-17.15 25.681-24.312l4.314 8.114c3.613 6.781 10.592 10.652 17.803 10.651 3.185 0 6.416-.756 9.42-2.348l34.798-18.51c4.746-2.517 8.229-6.744 9.807-11.902 1.575-5.15 1.055-10.593-1.465-15.325zm-220.89 35.184c5.569.934 7.792 2.269 8.527 2.843-.185.474-.641 1.368-1.755 2.714l-24.365 24.003c-5.171-8.525-11.733-16.166-19.366-22.562 4.604-6.316 12.456-11.096 36.959-6.998zm-114.815 149.545c-40.227-10.858-64.121-52.421-53.261-92.652 8.634-32.031 37.82-55.01 70.966-55.88 7.31-.183 14.595.695 21.677 2.617 8.75 2.366 16.862 6.18 24.108 11.338 9.355 6.658 17.117 15.453 22.603 25.558l-2.556 2.518c-14.779 14.536-25.561 45.371-16.781 61.863 4.728 8.881 11.19 12.212 15.779 13.443.047.013.096.021.143.033-17.701 26.767-50.874 39.74-82.678 31.162zm322.715-173.822c-.395 1.292-1.26 2.346-2.443 2.974l-34.798 18.51c-2.448 1.299-5.496.374-6.791-2.055l-54.121-101.808c-1.277-2.398-.33-5.504 2.061-6.778l34.841-18.517c.72-.383 1.509-.578 2.312-.578.497 0 1 .075 1.494.226 1.292.395 2.346 1.26 2.973 2.442l54.118 101.773c.001.002.002.003.003.005.619 1.166.744 2.517.351 3.806z"/></g></svg>