<svg id="Icons" height="512" viewBox="0 0 74 74" width="512" xmlns="http://www.w3.org/2000/svg"><path d="m60.25 63h-46.5a4.755 4.755 0 0 1 -4.75-4.75v-50.5a4.755 4.755 0 0 1 4.75-4.75h46.5a4.755 4.755 0 0 1 4.75 4.75v50.5a4.755 4.755 0 0 1 -4.75 4.75zm-46.5-58a2.753 2.753 0 0 0 -2.75 2.75v50.5a2.753 2.753 0 0 0 2.75 2.75h46.5a2.753 2.753 0 0 0 2.75-2.75v-50.5a2.753 2.753 0 0 0 -2.75-2.75z"/><path d="m65 41h-56v-28h56zm-54-2h52v-24h-52z"/><path d="m52 56a5 5 0 1 1 5-5 5.006 5.006 0 0 1 -5 5zm0-8a3 3 0 1 0 3 3 3 3 0 0 0 -3-3z"/><path d="m22 56a5 5 0 1 1 5-5 5.006 5.006 0 0 1 -5 5zm0-8a3 3 0 1 0 3 3 3 3 0 0 0 -3-3z"/><path d="m55.813 71h-6.625a3.191 3.191 0 0 1 -3.188-3.187v-6.813h13v6.813a3.191 3.191 0 0 1 -3.187 3.187zm-7.813-8v4.813a1.189 1.189 0 0 0 1.188 1.187h6.625a1.189 1.189 0 0 0 1.187-1.187v-4.813z"/><path d="m24.813 71h-6.625a3.191 3.191 0 0 1 -3.188-3.187v-6.813h13v6.813a3.191 3.191 0 0 1 -3.187 3.187zm-7.813-8v4.813a1.189 1.189 0 0 0 1.188 1.187h6.625a1.189 1.189 0 0 0 1.187-1.187v-4.813z"/><path d="m71 30.167h-7v-2h5v-10.167h-4v-2h6z"/><path d="m10 30.167h-7v-14.167h6v2h-4v10.167h5z"/><path d="m36 14h2v26h-2z"/><path d="m31 50h12v2h-12z"/></svg>