<?xml version="1.0" encoding="iso-8859-1"?>
<!-- Generator: Adobe Illustrator 19.0.0, SVG Export Plug-In . SVG Version: 6.00 Build 0)  -->
<svg version="1.1" id="Capa_1" xmlns="http://www.w3.org/2000/svg" xmlns:xlink="http://www.w3.org/1999/xlink" x="0px" y="0px"
	 viewBox="0 0 480 480" style="enable-background:new 0 0 480 480;" xml:space="preserve">
<g>
	<g>
		<path d="M450.536,163.165l-3.376-6.76c-1.977-3.951-6.783-5.552-10.734-3.575c-0.587,0.294-1.136,0.659-1.634,1.087
			c-29.017,24.737-71.851,24.221-100.264-1.208l-25.176-22.664c-2.663-2.379-6.58-2.706-9.6-0.8l-26.72,16.872l-9.08-14.4
			l-13.552,8.544l9.088,14.4l-13.528,8.536l-9.08-14.4l-13.528,8.552l9.08,14.4l-13.52,8.544l-9.08-14.4l-13.536,8.544l9.08,14.4
			l-13.536,8.52l-9.08-14.4l-13.52,8.592l8.856,14.016l-8.384,5.424c-0.88,0.568-1.6,1.28-2.456,1.912l-18.352,11.592l-117.6,26.128
			C12.966,254.619-0.083,270.892,0,289.662v54.328c0,4.418,3.582,8,8,8h208c0.537,0.001,1.073-0.053,1.6-0.16L328,329.741v14.248
			c0,4.418,3.582,8,8,8h136c4.418,0,8-3.582,8-8v-56C479.949,244.665,469.864,201.94,450.536,163.165z M451.936,209.446
			c7.15,22.859,11.165,46.582,11.935,70.52H349.184C360.112,262.15,388.992,226.925,451.936,209.446z M16,289.662
			c-0.053-11.268,7.782-21.037,18.792-23.432l117.016-26c-0.745,6.495,0.123,13.073,2.528,19.152l6.232,15.576
			c1.43,3.634,5.29,5.69,9.104,4.848l55.592-11.912c25.115-5.409,51.267,2.17,69.6,20.168L215.2,303.99H16V289.662z M328,313.429
			l-112.8,22.56H16v-16h200c0.537,0.001,1.073-0.053,1.6-0.16L328,297.741V313.429z M330.4,280.957l-17.064,3.408
			c-21.942-27.123-57.307-39.549-91.392-32.112L172.92,262.75l-3.728-9.312c-3.782-9.547-1.071-20.443,6.744-27.104l10.928-6.904
			l8,12.68l13.536-8.56l-8-12.68l13.52-8.52l8,12.68l13.528-8.552l-8-12.68l13.528-8.544l8,12.68l13.52-8.552l-8-12.664L268,168.173
			l8,12.672l13.6-8.544l-8-12.68l21.6-13.6l20.672,18.608c31.554,28.254,78.291,31.397,113.344,7.624
			c3.528,7.2,6.656,14.616,9.512,22.128C366.616,216.894,337.432,266.181,330.4,280.957z M464,335.99H344v-40h120V335.99z"/>
	</g>
</g>
<g>
</g>
<g>
</g>
<g>
</g>
<g>
</g>
<g>
</g>
<g>
</g>
<g>
</g>
<g>
</g>
<g>
</g>
<g>
</g>
<g>
</g>
<g>
</g>
<g>
</g>
<g>
</g>
<g>
</g>
</svg>
