<?xml version="1.0"?>
<svg xmlns="http://www.w3.org/2000/svg" id="Outline" viewBox="0 0 512 512" width="512" height="512"><path d="M245.838,18.53A8,8,0,0,0,240,16H64a8,8,0,0,0-7.983,8.521L80,392.259V456a40.045,40.045,0,0,0,40,40H416a40.045,40.045,0,0,0,40-40V344a40.051,40.051,0,0,0-24-36.65V280c0-26.876-10.606-50.552-30.672-68.468a102.8,102.8,0,0,0-30.637-19.066,7.716,7.716,0,0,0-10,4.272c-.394.745-4.134,7.372-15.653,13.985-11.61,6.665-33.531,14.61-72.028,14.61q-22.085,0-38.416,4.49l13.389-205.3A8,8,0,0,0,245.838,18.53ZM231.461,32l-1.043,16H73.582L72.539,32ZM184,448V352H440v96Zm-48,0v-8a8.009,8.009,0,0,1,8-8h16a8.009,8.009,0,0,1,8,8v8Zm32-30.624A23.889,23.889,0,0,0,160,416H144a24.027,24.027,0,0,0-24,24v8H96V400h72ZM97.376,464h71.429a39.841,39.841,0,0,0,7.217,16H120A24.039,24.039,0,0,1,97.376,464ZM416,480H208a24.039,24.039,0,0,1-22.624-16H438.624A24.039,24.039,0,0,1,416,480Zm22.624-144H185.376A24.039,24.039,0,0,1,208,320H416A24.039,24.039,0,0,1,438.624,336ZM208,304V288H416v16Zm146.865-80.5a62.628,62.628,0,0,0,16-13.467,92.294,92.294,0,0,1,20.227,13.814c14.513,13.13,22.739,29.3,24.53,48.154H208.438a27.866,27.866,0,0,1,6.456-13.225c9.9-11.411,30-17.442,58.116-17.442C307.9,241.333,335.436,235.333,354.865,223.5Zm-152.4,25.186a43.461,43.461,0,0,0-10.393,30.268A8.024,8.024,0,0,0,192,280v27.35A40.051,40.051,0,0,0,168,344v40H95.5L74.625,64h154.75L218.14,236.263A53.419,53.419,0,0,0,202.469,248.685Z"/><path d="M354.749,375.676C343.2,370.727,328.017,368,312,368s-31.2,2.727-42.749,7.676C250.761,383.6,248,394.317,248,400s2.761,16.4,21.251,24.324C280.8,429.273,295.983,432,312,432s31.2-2.727,42.749-7.676C373.239,416.4,376,405.683,376,400S373.239,383.6,354.749,375.676ZM312,416c-29.776,0-48-10.359-48-16s18.224-16,48-16,48,10.359,48,16S341.776,416,312,416Z"/><path d="M200,80H104a8,8,0,0,0-8,8v48a8,8,0,0,0,8,8h96a8,8,0,0,0,8-8V88A8,8,0,0,0,200,80Zm-8,48H112V96h80Z"/><path d="M184,160H120a8,8,0,0,0,0,16h64a8,8,0,0,0,0-16Z"/></svg>
