<?xml version="1.0" encoding="iso-8859-1"?>
<!-- Generator: Adobe Illustrator 19.0.0, SVG Export Plug-In . SVG Version: 6.00 Build 0)  -->
<svg version="1.1" id="Layer_1" xmlns="http://www.w3.org/2000/svg" xmlns:xlink="http://www.w3.org/1999/xlink" x="0px" y="0px"
	 viewBox="0 0 512 512" style="enable-background:new 0 0 512 512;" xml:space="preserve">
<g>
	<g>
		<path d="M392.243,48.087c-39.497,0-71.63,32.133-71.63,71.63c0,39.497,32.133,71.63,71.63,71.63
			c39.497,0,71.63-32.133,71.63-71.63C463.873,80.221,431.74,48.087,392.243,48.087z M392.243,176.32
			c-31.211,0-56.603-25.392-56.603-56.603s25.392-56.603,56.603-56.603s56.603,25.392,56.603,56.603S423.454,176.32,392.243,176.32z
			"/>
	</g>
</g>
<g>
	<g>
		<path d="M361.187,88.16h-1.002c-4.151,0-7.514,3.364-7.514,7.514s3.364,7.514,7.514,7.514h1.002c4.151,0,7.514-3.364,7.514-7.514
			S365.338,88.16,361.187,88.16z"/>
	</g>
</g>
<g>
	<g>
		<path d="M393.245,88.16h-1.002c-4.151,0-7.514,3.364-7.514,7.514s3.364,7.514,7.514,7.514h1.002c4.151,0,7.514-3.364,7.514-7.514
			S397.396,88.16,393.245,88.16z"/>
	</g>
</g>
<g>
	<g>
		<path d="M425.303,88.16h-1.002c-4.151,0-7.514,3.364-7.514,7.514s3.364,7.514,7.514,7.514h1.002c4.151,0,7.514-3.364,7.514-7.514
			S429.454,88.16,425.303,88.16z"/>
	</g>
</g>
<g>
	<g>
		<path d="M393.245,64.116h-1.002c-4.151,0-7.514,3.364-7.514,7.514c0,4.15,3.364,7.514,7.514,7.514h1.002
			c4.151,0,7.514-3.364,7.514-7.514C400.759,67.48,397.396,64.116,393.245,64.116z"/>
	</g>
</g>
<g>
	<g>
		<path d="M361.187,112.204h-1.002c-4.151,0-7.514,3.364-7.514,7.514s3.364,7.514,7.514,7.514h1.002
			c4.151,0,7.514-3.364,7.514-7.514S365.338,112.204,361.187,112.204z"/>
	</g>
</g>
<g>
	<g>
		<path d="M393.245,112.204h-1.002c-4.151,0-7.514,3.364-7.514,7.514s3.364,7.514,7.514,7.514h1.002
			c4.151,0,7.514-3.364,7.514-7.514S397.396,112.204,393.245,112.204z"/>
	</g>
</g>
<g>
	<g>
		<path d="M425.303,112.204h-1.002c-4.151,0-7.514,3.364-7.514,7.514s3.364,7.514,7.514,7.514h1.002
			c4.151,0,7.514-3.364,7.514-7.514S429.454,112.204,425.303,112.204z"/>
	</g>
</g>
<g>
	<g>
		<path d="M361.187,136.247h-1.002c-4.151,0-7.514,3.364-7.514,7.514c0,4.149,3.364,7.514,7.514,7.514h1.002
			c4.151,0,7.514-3.364,7.514-7.514C368.701,139.611,365.338,136.247,361.187,136.247z"/>
	</g>
</g>
<g>
	<g>
		<path d="M393.245,136.247h-1.002c-4.151,0-7.514,3.364-7.514,7.514c0,4.149,3.364,7.514,7.514,7.514h1.002
			c4.151,0,7.514-3.364,7.514-7.514C400.759,139.611,397.396,136.247,393.245,136.247z"/>
	</g>
</g>
<g>
	<g>
		<path d="M425.303,136.247h-1.002c-4.151,0-7.514,3.364-7.514,7.514c0,4.149,3.364,7.514,7.514,7.514h1.002
			c4.151,0,7.514-3.364,7.514-7.514C432.817,139.611,429.454,136.247,425.303,136.247z"/>
	</g>
</g>
<g>
	<g>
		<path d="M393.245,160.291h-1.002c-4.151,0-7.514,3.364-7.514,7.514c0,4.15,3.364,7.514,7.514,7.514h1.002
			c4.151,0,7.514-3.364,7.514-7.514C400.759,163.655,397.396,160.291,393.245,160.291z"/>
	</g>
</g>
<g>
	<g>
		<path d="M506.571,441.665c-6.114-32.552-20.473-78.429-54.165-112.122c-10.545-10.545-22.971-19.894-36.929-27.787
			c-3.61-2.043-8.196-0.77-10.239,2.841c-2.043,3.613-0.77,8.197,2.842,10.239c12.776,7.225,24.115,15.749,33.699,25.333
			c24.703,24.702,38.386,56.973,45.942,86.333c-12.656,2.658-24.311,8.287-34.242,16.529l-23.632-23.632l6.022-6.022
			c2.934-2.934,2.934-7.692,0-10.625c-2.934-2.933-7.691-2.935-10.626,0l-6.021,6.021l-17.71-17.709l6.021-6.021
			c2.934-2.934,2.934-7.692,0-10.625c-2.935-2.934-7.692-2.934-10.626,0l-6.021,6.021l-17.709-17.709l6.021-6.021
			c2.934-2.934,2.934-7.692,0-10.625c-2.935-2.934-7.692-2.934-10.626,0l-6.021,6.021l-23.633-23.633
			c8.262-9.954,13.897-21.636,16.547-34.323c9.047,2.328,18.366,5.236,27.656,8.88c3.861,1.515,8.224-0.388,9.739-4.251
			c1.517-3.863-0.387-8.223-4.25-9.739C333.857,267.555,279.559,270,277.272,270.112c-3.854,0.193-6.935,3.275-7.127,7.128
			c-0.057,1.127-1.308,28.003,5.266,63.01c6.114,32.552,20.473,78.429,54.166,112.122c33.694,33.694,79.57,48.053,112.122,54.166
			c24.97,4.69,45.801,5.397,56.104,5.397c2.617,0,5.559,0.27,8.146-0.297c3.27-0.716,5.722-3.62,5.89-6.962
			C511.894,503.55,513.145,476.674,506.571,441.665z M285.069,285.025c10.405,0.059,31.303,0.903,55.743,5.781
			c-2.535,12.372-8.557,23.585-17.58,32.606c-8.922,8.923-20.035,14.936-32.286,17.513
			C286.026,316.405,285.147,295.444,285.069,285.025z M340.201,441.744c-24.658-24.656-38.336-56.856-45.902-86.173
			c12.56-2.683,24.136-8.304,33.99-16.477l23.634,23.634l-6.021,6.021c-2.934,2.934-2.934,7.692,0,10.625
			c2.895,2.894,7.731,2.894,10.626,0l6.021-6.021l17.709,17.709l-6.021,6.021c-2.934,2.934-2.934,7.692,0,10.625
			c2.895,2.894,7.731,2.894,10.626,0l6.021-6.021l17.709,17.709l-6.021,6.021c-2.934,2.934-2.934,7.692,0,10.625
			c2.895,2.895,7.731,2.894,10.626,0l6.021-6.021l23.632,23.632c-8.195,9.876-13.806,21.451-16.481,34.025
			C397.072,480.116,364.889,466.432,340.201,441.744z M441.022,491.034c2.568-12.261,8.564-23.367,17.515-32.319
			c9-9,20.186-15.018,32.528-17.563c4.892,24.446,5.766,45.334,5.845,55.733C486.484,496.814,465.533,495.95,441.022,491.034z"/>
	</g>
</g>
<g>
	<g>
		<path d="M119.749,320.582c-39.497,0-71.63,32.133-71.63,71.63s32.133,71.63,71.63,71.63s71.63-32.133,71.63-71.63
			S159.246,320.582,119.749,320.582z M77.823,430.199c-9.115-10.051-14.677-23.381-14.677-37.987
			c0-10.562,2.915-20.452,7.972-28.922c10.757,9.19,17.073,22.672,17.073,36.937C88.192,411.209,84.537,421.671,77.823,430.199z
			 M119.749,448.814c-11.197,0-21.636-3.282-30.431-8.914c9.003-11.241,13.901-25.11,13.901-39.674
			c0-18.86-8.409-36.691-22.737-48.724c10.186-9.829,24.029-15.893,39.267-15.893s29.081,6.064,39.267,15.893
			c-14.328,12.034-22.737,29.864-22.737,48.724c0,14.564,4.898,28.433,13.901,39.675
			C141.385,445.533,130.946,448.814,119.749,448.814z M161.675,430.198c-6.714-8.529-10.369-18.989-10.369-29.971
			c0-14.264,6.316-27.747,17.073-36.937c5.057,8.47,7.972,18.361,7.972,28.922C176.352,406.817,170.791,420.147,161.675,430.198z"/>
	</g>
</g>
<g>
	<g>
		<path d="M135.778,0C60.927,0,0.032,60.896,0.032,135.746s60.896,135.746,135.746,135.746s135.746-60.896,135.746-135.746
			S210.629,0,135.778,0z M246.886,88.552c2.742,6.431,4.942,13.144,6.541,20.086l-9.971-7.877L246.886,88.552z M236.66,69.524
			c-0.088,0.226-0.167,0.459-0.234,0.697l-7.704,27.426l-43.309,14.072l-42.12-28.081V35.579l24.394-16.263
			C196.313,27.169,220.719,45.321,236.66,69.524z M174.772,124.186l-12.318,43.123c-0.839,0.181-1.657,0.514-2.418,0.996h-48.514
			c-0.761-0.482-1.579-0.814-2.418-0.996l-12.32-43.123c0.153-0.315,0.297-0.636,0.408-0.979c0.102-0.316,0.175-0.632,0.234-0.95
			l38.353-25.569l38.353,25.569c0.059,0.318,0.132,0.634,0.234,0.95C174.475,123.55,174.619,123.872,174.772,124.186z
			 M135.779,15.027c3.554,0,7.072,0.163,10.55,0.467l-10.55,7.034l-10.55-7.034C128.707,15.192,132.225,15.027,135.779,15.027z
			 M103.925,19.301c0.202,0.167,0.414,0.328,0.637,0.477l23.702,15.801v48.06l-42.12,28.081l-43.31-14.073l-7.911-28.164
			C50.875,45.285,75.291,27.142,103.925,19.301z M24.67,88.552l3.43,12.208l-9.971,7.877C19.729,101.695,21.928,94.981,24.67,88.552
			z M15.058,135.746c0.001-1.919,0.051-3.828,0.14-5.726c0.215-0.137,0.436-0.261,0.64-0.423l22.352-17.659l43.501,14.134
			l14.629,51.2l-25.498,35.095l-29.212-1.178C25.007,190.507,15.058,164.269,15.058,135.746z M56.642,226.835l12.587,0.508
			l4.385,11.85C67.596,235.562,61.918,231.424,56.642,226.835z M178.402,248.686c-13.261,5.021-27.626,7.779-42.625,7.779
			c-15.017,0-29.4-2.765-42.676-7.799c-0.064-0.251-0.141-0.502-0.233-0.75l-9.888-26.716l27.512-37.867h50.573l27.512,37.867
			L178.402,248.686z M197.941,239.193l4.385-11.85l12.587-0.507C209.637,231.425,203.959,235.563,197.941,239.193z M229.915,211.226
			c-0.236-0.013-0.476-0.017-0.717-0.007l-28.464,1.148l-25.498-35.095l14.629-51.2l43.501-14.134l22.996,18.168
			c0.086,1.869,0.136,3.749,0.136,5.64C256.497,164.286,246.536,190.54,229.915,211.226z"/>
	</g>
</g>
<g>
</g>
<g>
</g>
<g>
</g>
<g>
</g>
<g>
</g>
<g>
</g>
<g>
</g>
<g>
</g>
<g>
</g>
<g>
</g>
<g>
</g>
<g>
</g>
<g>
</g>
<g>
</g>
<g>
</g>
</svg>
