<?xml version="1.0" encoding="iso-8859-1"?>
<!-- Generator: Adobe Illustrator 19.0.0, SVG Export Plug-In . SVG Version: 6.00 Build 0)  -->
<svg version="1.1" id="Capa_1" xmlns="http://www.w3.org/2000/svg" xmlns:xlink="http://www.w3.org/1999/xlink" x="0px" y="0px"
	 viewBox="0 0 512.001 512.001" style="enable-background:new 0 0 512.001 512.001;" xml:space="preserve">
<g>
	<g>
		<path d="M504.501,368.402c4.142,0,7.5-3.357,7.5-7.5v-14.505c0-14.663-11.196-26.592-24.957-26.592h-12.138v-15.368
			c0-10.753-8.749-19.501-19.501-19.501h-60.37c-10.753,0-19.501,8.749-19.501,19.501v40.021c-53.929-6.291-121.058-6.301-175.078,0
			v-40.021c0-10.753-8.749-19.501-19.501-19.501h-4.77c41.115-25.037,87.096-58.988,122.947-92.053l23.542,32.364
			c6.334,8.71,18.563,10.613,27.242,4.3l48.821-35.51c0,0,0,0,0-0.001c8.695-6.324,10.624-18.545,4.299-27.242l-9.04-12.428
			l9.816-7.139c11.129-8.096,13.166-24.328,4.541-36.186l-40.71-55.969c-8.626-11.856-24.695-14.919-35.824-6.824l-9.817,7.141
			l-9.039-12.427c-6.324-8.698-18.545-10.625-27.242-4.301L236.9,74.171c-8.695,6.324-10.624,18.545-4.299,27.242l23.541,32.364
			c-47.326,26.643-101.607,66.114-141.585,102.985L97.24,212.957c-9.752-13.407-28.62-16.387-42.025-6.633l-31.706,23.061
			c-13.414,9.759-16.389,28.611-6.632,42.026l2.814,3.869l-9.815,7.139c-11.351,8.255-12.99,24.57-4.541,36.186l40.71,55.967
			c4.454,6.125,10.982,10.02,17.944,11.055v29.978c0,14.663,11.196,26.593,24.957,26.593h12.138v15.367
			c0,10.753,8.749,19.501,19.501,19.501h60.37c10.753,0,19.501-8.749,19.501-19.501v-40.017c21.315,2.48,45.276,4.039,69.887,4.534
			c0.052,0.002,0.103,0.002,0.154,0.002c4.072,0,7.414-3.26,7.497-7.35c0.083-4.141-3.207-7.566-7.349-7.649
			c-24.815-0.5-48.922-2.097-70.189-4.64v-42.889c53.057-6.359,120.92-6.491,175.078,0v42.889
			c-21.265,2.543-45.373,4.14-70.189,4.64c-4.141,0.083-7.432,3.508-7.349,7.648c0.083,4.091,3.423,7.351,7.497,7.351
			c0.051,0,0.103,0,0.154-0.002c24.612-0.495,48.573-2.054,69.887-4.534v40.017c0,10.753,8.749,19.501,19.501,19.501h60.37
			c10.753,0,19.501-8.749,19.501-19.501v-15.367h12.138c13.761,0,24.957-11.93,24.957-26.593v-19.7c0-4.143-3.358-7.5-7.5-7.5
			s-7.5,3.357-7.5,7.5v19.7c0,6.283-4.559,11.592-9.956,11.592h-12.138v-92.39h12.138c5.396,0,9.956,5.308,9.956,11.591v14.505
			C497,365.045,500.359,368.402,504.501,368.402z M340.642,60.379c4.363-3.172,11.175-1.563,14.869,3.518l40.71,55.969
			c3.696,5.08,3.131,12.056-1.233,15.23l-9.816,7.139c-6.077-8.358-48.169-66.225-54.346-74.717L340.642,60.379z M244.732,92.591
			c-1.434-1.973-0.98-4.852,0.992-6.287l48.821-35.511c1.981-1.439,4.856-0.974,6.286,0.993
			c3.036,4.174,72.998,100.358,76.621,105.34c0.002,0.002,0.003,0.004,0.005,0.006l13.447,18.486
			c1.435,1.973,0.981,4.852-0.992,6.287l-48.822,35.511c-1.982,1.44-4.832,1.006-6.285-0.993
			C331.846,212.356,248.303,97.5,244.732,92.591z M265.023,145.989l25.229,34.684c-39.021,36.216-93.755,76.252-141.588,102.979
			l-25.225-34.679C162.355,212.852,217.122,172.753,265.023,145.989z M63.989,346.397v23.808c-2.231-0.831-4.293-2.369-5.811-4.457
			l-40.71-55.968c-3.865-5.312-3.001-12.15,1.233-15.23l9.815-7.139c1.19,1.637,10.507,14.445,36.768,50.55
			C64.39,340.802,63.989,343.734,63.989,346.397z M101.084,427.196H88.946c-5.396,0-9.956-5.308-9.956-11.592
			c0-6.776,0-62.144,0-69.208c0-2.62,0.865-5.449,2.578-7.671c2.04-2.651,4.799-3.92,7.378-3.92h12.137V427.196z M101.084,304.436
			v15.368H88.946c-0.609,0-1.212,0.031-1.811,0.078c-0.106,0.008-0.212,0.016-0.318,0.026c-4.644,0.42-8.928,2.199-12.501,4.964
			l-45.307-62.287c-4.892-6.724-3.401-16.177,3.324-21.069l31.706-23.061c6.695-4.873,16.196-3.376,21.069,3.325
			c5.461,7.507,40.093,55.12,45.937,63.154h-10.461C109.833,284.934,101.084,293.683,101.084,304.436z M185.456,457.564
			c0,2.439-2.061,4.5-4.5,4.5h-60.37c-2.439,0-4.5-2.061-4.5-4.5c0-7.059,0-148.525,0-153.127c0-2.439,2.061-4.5,4.5-4.5
			c15.263,0,23.69,0,28.077,0c3.162,0,4.226,0,4.235,0c4.385,0,12.807,0,28.058,0c2.439,0,4.5,2.061,4.5,4.5
			C185.456,313.718,185.456,451.857,185.456,457.564z M459.906,457.564c0,2.439-2.061,4.5-4.5,4.5h-60.37
			c-2.439,0-4.5-2.061-4.5-4.5V304.437c0-2.439,2.061-4.5,4.5-4.5h60.37c2.439,0,4.5,2.061,4.5,4.5
			C459.906,313.675,459.906,452.608,459.906,457.564z"/>
	</g>
</g>
<g>
</g>
<g>
</g>
<g>
</g>
<g>
</g>
<g>
</g>
<g>
</g>
<g>
</g>
<g>
</g>
<g>
</g>
<g>
</g>
<g>
</g>
<g>
</g>
<g>
</g>
<g>
</g>
<g>
</g>
</svg>
