<?xml version="1.0" encoding="iso-8859-1"?>
<!-- Generator: Adobe Illustrator 19.0.0, SVG Export Plug-In . SVG Version: 6.00 Build 0)  -->
<svg version="1.1" id="Capa_1" xmlns="http://www.w3.org/2000/svg" xmlns:xlink="http://www.w3.org/1999/xlink" x="0px" y="0px"
	 viewBox="0 0 512.001 512.001" style="enable-background:new 0 0 512.001 512.001;" xml:space="preserve">
<g>
	<g>
		<path d="M100.505,209.365c-1.86-1.86-4.44-2.92-7.071-2.92c-2.64,0-5.211,1.06-7.081,2.92c-1.86,1.87-2.92,4.44-2.92,7.081
			c0,2.63,1.06,5.211,2.92,7.071c1.87,1.86,4.441,2.93,7.081,2.93c2.63,0,5.211-1.07,7.071-2.93c1.86-1.87,2.93-4.44,2.93-7.071
			S102.366,211.235,100.505,209.365z"/>
	</g>
</g>
<g>
	<g>
		<path d="M475.055,101.722c4.911-1.873,9.153-3.491,12.386-5.542c3.636-2.306,6.695-4.716,9.35-7.371
			c20.284-20.284,20.28-53.296-0.01-73.59c-20.293-20.288-53.303-20.293-73.589-0.008c-2.649,2.649-5.06,5.706-7.373,9.349
			c-2.048,3.232-3.666,7.473-5.539,12.383c-1.801,4.724-5.959,15.626-8.956,17.481c-0.254-0.085-0.736-0.287-1.465-0.762
			c-14.175-9.231-45.43-23.94-69.675-19.261l-8.036-8.036c-7.05-7.05-16.423-10.932-26.393-10.932s-19.343,3.882-26.393,10.932
			c-7.05,7.05-10.933,16.423-10.933,26.393c0,5.084,1.015,10.01,2.939,14.555c-19.022-1.168-38.439,5.484-52.943,19.987
			l-98.941,98.941c-3.905,3.905-3.905,10.238,0,14.144c3.905,3.905,10.238,3.905,14.144,0l56.14-56.14l35.579,35.578
			c1.953,1.953,4.512,2.929,7.072,2.929s5.12-0.977,7.072-2.929c3.905-3.905,3.905-10.238,0-14.143l-35.578-35.578l28.657-28.657
			c9.227-9.227,21.494-14.308,34.542-14.308c13.048,0,25.315,5.081,34.543,14.308l118.898,118.898
			c9.227,9.227,14.308,21.495,14.308,34.543c0,13.048-5.082,25.315-14.308,34.542L217.345,482.64
			c-12.49,12.491-32.814,12.492-45.306,0L29.361,339.963c-12.491-12.491-12.491-32.815,0-45.306l46.015-46.015
			c3.905-3.905,3.905-10.238,0-14.144s-10.238-3.905-14.144,0l-46.015,46.015c-20.289,20.29-20.289,53.303,0,73.593l142.679,142.678
			c10.145,10.145,23.47,15.217,36.796,15.217c13.326,0,26.652-5.072,36.797-15.217l193.21-193.21
			c14.503-14.503,21.155-33.921,19.987-52.943c4.544,1.924,9.471,2.939,14.555,2.939c9.97,0,19.343-3.882,26.394-10.932
			c14.552-14.552,14.552-38.233,0-52.785l-8.036-8.036c4.679-24.245-10.03-55.499-19.261-69.675
			c-0.475-0.729-0.677-1.21-0.762-1.464C459.432,107.68,470.331,103.524,475.055,101.722z M459.374,191.879
			c0.003,0.003,0.007,0.006,0.01,0.009l12.107,12.107c6.754,6.756,6.754,17.746-0.001,24.5c-3.271,3.271-7.622,5.073-12.249,5.073
			s-8.977-1.802-12.249-5.075L283.507,65.009c-3.271-3.271-5.073-7.622-5.073-12.249c0-4.627,1.802-8.978,5.075-12.249
			c3.376-3.377,7.813-5.065,12.249-5.065s8.873,1.688,12.249,5.065l12.113,12.113c0.001,0.001,0.002,0.003,0.004,0.004
			L459.374,191.879z M441.576,123.057c7.294,11.201,13.544,25.883,15.927,38.664L350.28,54.499
			c12.781,2.381,27.463,8.632,38.664,15.927c7.713,5.021,14.256,4.471,18.388,3.128c11.866-3.862,17.284-18.068,21.636-29.482
			c1.299-3.407,2.772-7.271,3.739-8.796c1.514-2.384,3.027-4.32,4.627-5.92c12.486-12.485,32.809-12.482,45.301,0.008
			c12.491,12.494,12.496,32.816,0.011,45.303c-1.602,1.601-3.537,3.113-5.918,4.622c-1.532,0.971-5.395,2.444-8.803,3.744
			c-11.413,4.353-25.617,9.771-29.479,21.636C437.104,108.801,436.555,115.345,441.576,123.057z"/>
	</g>
</g>
<g>
	<g>
		<path d="M373.94,277.312l-41.701-41.701c-3.905-3.905-10.238-3.905-14.144,0c-3.905,3.905-3.905,10.238,0,14.144l41.701,41.701
			c1.953,1.953,4.512,2.929,7.073,2.929c2.559,0,5.12-0.976,7.072-2.929C377.845,287.551,377.845,281.218,373.94,277.312z"/>
	</g>
</g>
<g>
	<g>
		<path d="M326.379,324.873l-41.701-41.701c-3.904-3.906-10.237-3.906-14.143,0c-3.905,3.905-3.905,10.238,0,14.144l41.701,41.701
			c1.953,1.953,4.512,2.929,7.072,2.929s5.12-0.976,7.072-2.929C330.284,335.112,330.284,328.779,326.379,324.873z"/>
	</g>
</g>
<g>
	<g>
		<path d="M278.82,372.431l-41.701-41.701c-3.905-3.905-10.238-3.905-14.143,0s-3.905,10.238,0,14.144l41.701,41.701
			c1.953,1.953,4.512,2.929,7.072,2.929c2.559,0,5.12-0.976,7.072-2.929C282.726,382.671,282.726,376.338,278.82,372.431z"/>
	</g>
</g>
<g>
	<g>
		<path d="M231.26,419.991l-41.701-41.701c-3.905-3.905-10.238-3.905-14.143,0s-3.905,10.238,0,14.144l41.701,41.701
			c1.953,1.953,4.512,2.929,7.072,2.929s5.12-0.976,7.072-2.929C235.166,430.23,235.166,423.898,231.26,419.991z"/>
	</g>
</g>
<g>
	<g>
		<path d="M263.072,199.254c-1.86-1.86-4.44-2.92-7.071-2.92c-2.63,0-5.211,1.06-7.071,2.92c-1.87,1.86-2.93,4.44-2.93,7.081
			c0,2.63,1.06,5.211,2.93,7.071c1.86,1.86,4.44,2.93,7.071,2.93c2.63,0,5.212-1.069,7.071-2.93c1.86-1.86,2.93-4.44,2.93-7.071
			C266.002,203.695,264.932,201.124,263.072,199.254z"/>
	</g>
</g>
<g>
</g>
<g>
</g>
<g>
</g>
<g>
</g>
<g>
</g>
<g>
</g>
<g>
</g>
<g>
</g>
<g>
</g>
<g>
</g>
<g>
</g>
<g>
</g>
<g>
</g>
<g>
</g>
<g>
</g>
</svg>
