<svg height="512pt" viewBox="-64 0 512 512.00389" width="512pt" xmlns="http://www.w3.org/2000/svg"><path d="m375.035156 454.195312h-99.097656v-16.773437c0-4.5625-3.695312-8.261719-8.257812-8.261719-4.566407 0-8.261719 3.699219-8.261719 8.261719 0 17.015625-13.84375 30.859375-31.25 30.871094l-43.070313 2.023437v-115.21875c0-2.691406-1.308594-5.203125-3.507812-6.753906-2.195313-1.542969-4.984375-1.910156-7.539063-1.019531l-20.78125 7.464843c-12.15625 3.816407-16.152343 1.773438-16.839843 1.328126-.363282-.234376-.578126-.515626-.710938-.71875 4.285156-5.914063 24.890625-21.230469 43.5-33.300782 6.878906 1.441406 27.808594 11.71875 45.644531 21.742188 3.644531 10.414062 10.527344 18.269531 19.855469 22.414062l19.902344 7.925782c.847656.339843 1.753906.535156 2.664062.578124l107.355469 5.105469c4.597656.140625 8.433594-3.300781 8.644531-7.859375.214844-4.558594-3.300781-8.425781-7.855468-8.644531l-105.976563-5.035156-18.320313-7.289063c-7.234374-3.21875-10.21875-10.660156-11.597656-15.597656-.667968-1.839844-1.96875-3.378906-3.660156-4.34375-27.746094-15.847656-42.695312-22.105469-51.003906-24.414062.058594-.382813.230468-.726563.230468-1.132813 0-1.296875-.359374-2.480469-.890624-3.574219 37.960937-23.519531 64.769531-79.652344 64.769531-145.070312.003906-86.515625-46.851563-156.902344-104.441407-156.902344-4.371093 0-8.648437.535156-12.882812 1.320312-4.40625-.832031-8.882812-1.320312-13.34375-1.320312-57.589844 0-104.445312 70.386719-104.445312 156.902344 0 72.679687 33.695312 136.277344 80.394531 152.660156v29.019531h-12.386719c-11.386719 0-20.644531 9.261719-20.644531 20.644531v8.257813c0 4.667969 1.613281 8.925781 4.234375 12.386719-2.621094 3.464844-4.234375 7.722656-4.234375 12.386718v8.261719c0 4.664063 1.613281 8.921875 4.234375 12.386719-2.621094 3.460938-4.234375 7.722656-4.234375 12.386719v8.257812c0 7.34375 3.882812 13.761719 9.671875 17.421875-.878906 2.289063-1.414063 4.753906-1.414063 7.355469v8.257813c0 11.382812 9.257813 20.644531 20.644531 20.644531h5.121094c3.4375 14.386719 16.125 24.773437 31.371094 24.773437h26.113281c15.34375 0 28.160157-10.757812 31.472657-25.109375l44.347656-2.089843c13.757812 0 26.164062-5.898438 34.832031-15.292969 1.246094.761719 2.714844 1.203125 4.289063 1.203125h107.355468c4.566406 0 8.257813-3.699219 8.257813-8.257813 0-4.5625-3.695313-8.261719-8.257813-8.261719zm-293.164062-16.519531c-2.273438 0-4.128906-1.847656-4.128906-4.128906v-8.257813c0-2.277343 1.855468-4.128906 4.128906-4.128906h41.292968c2.273438 0 4.128907 1.851563 4.128907 4.128906v8.257813c0 2.28125-1.855469 4.128906-4.128907 4.128906zm53.679687-45.417969v8.257813c0 2.28125-1.855469 4.128906-4.128906 4.128906h-49.550781c-2.273438 0-4.128906-1.847656-4.128906-4.128906v-8.257813c0-2.277343 1.855468-4.128906 4.128906-4.128906h49.546875c2.277343 0 4.132812 1.851563 4.132812 4.128906zm96.910157-235.355468c0 77.410156-39.441407 140.386718-87.929688 140.386718-48.472656 0-87.917969-62.972656-87.917969-140.386718 0-77.410156 39.441407-140.386719 87.917969-140.386719 48.488281 0 87.929688 62.976563 87.929688 140.386719zm-202.082032 0c0-60.167969 23.875-111.464844 57.257813-131.398438-28.578125 28.027344-47.539063 76.414063-47.539063 131.398438 0 55.035156 18.996094 103.460937 47.617188 131.472656-33.914063-20.234375-57.335938-72.34375-57.335938-131.472656zm80.398438 156.902344h50.984375c-16.085938 10.746093-26.246094 18.730468-32.617188 24.777343h-18.367187zm-33.035156 45.421874c0-2.28125 1.855468-4.128906 4.132812-4.128906h37.011719c.042969.472656.113281.921875.210937 1.328125.386719 3.964844 2.476563 9.28125 7.4375 12.921875 1.339844.984375 2.929688 1.628906 4.53125 2.265625h-49.195312c-2.273438 0-4.128906-1.847656-4.128906-4.128906zm8.257812 107.355469v-8.261719c0-2.277343 1.855469-4.128906 4.128906-4.128906h41.292969c2.273437 0 4.128906 1.851563 4.128906 4.128906v8.261719c0 2.277344-1.855469 4.128907-4.128906 4.128907h-41.292969c-2.273437 0-4.128906-1.851563-4.128906-4.128907zm66.734375 28.902344h-26.109375c-6.015625 0-11.214844-3.304687-13.898438-8.257813h18.695313c11.390625 0 20.644531-9.261718 20.644531-20.644531v-8.261719c0-7.34375-3.878906-13.757812-9.671875-17.417968.878907-2.292969 1.414063-4.757813 1.414063-7.355469v-8.257813c0-2.597656-.535156-5.0625-1.414063-7.355468 5.792969-3.660156 9.671875-10.078125 9.671875-17.421875v-8.257813c0-4.664062-1.613281-8.925781-4.234375-12.386718 1.714844-2.261719 2.988281-4.859376 3.652344-7.707032 2.285156-.488281 4.539063-.933594 7.050781-1.722656l10.046875-3.605469v112.132813c0 .113281.066407.214844.070313.328125-.003906.121093-.070313.21875-.070313.335937 0 8.746094-7.105469 15.855469-15.847656 15.855469zm0 0"/><path d="m106.648438 94.96875c2.109374 0 4.226562-.808594 5.835937-2.421875l20.644531-20.644531c3.226563-3.222656 3.226563-8.449219 0-11.675782-3.222656-3.226562-8.449218-3.226562-11.675781 0l-20.644531 20.644532c-3.226563 3.226562-3.226563 8.453125 0 11.675781 1.613281 1.613281 3.722656 2.421875 5.839844 2.421875zm0 0"/><path d="m92.550781 142.097656c1.609375 1.609375 3.726563 2.417969 5.835938 2.417969 2.113281 0 4.226562-.808594 5.839843-2.417969l45.421876-45.421875c3.222656-3.222656 3.222656-8.453125 0-11.675781-3.226563-3.226562-8.453126-3.226562-11.675782 0l-45.421875 45.417969c-3.226562 3.226562-3.226562 8.453125 0 11.679687zm0 0"/><path d="m258.417969 83.582031c1.613281 1.609375 3.726562 2.417969 5.839843 2.417969 2.113282 0 4.226563-.808594 5.839844-2.417969l5.839844-5.839843 5.835938 5.839843c1.613281 1.609375 3.730468 2.417969 5.839843 2.417969 2.113281 0 4.226563-.808594 5.839844-2.417969 3.226563-3.226562 3.226563-8.453125 0-11.679687l-5.835937-5.835938 5.839843-5.839844c3.222657-3.226562 3.222657-8.453124 0-11.675781-3.226562-3.226562-8.453125-3.226562-11.679687 0l-5.835938 5.835938-5.839844-5.835938c-3.226562-3.226562-8.453124-3.226562-11.675781 0-3.226562 3.222657-3.226562 8.449219 0 11.675781l5.835938 5.839844-5.835938 5.835938c-3.230469 3.226562-3.230469 8.453125-.007812 11.679687zm0 0"/><path d="m37.453125 288.035156c-3.226563-3.226562-8.453125-3.226562-11.679687 0l-5.835938 5.835938-5.839844-5.835938c-3.226562-3.226562-8.453125-3.226562-11.675781 0-3.226563 3.222656-3.226563 8.449219 0 11.675782l5.835937 5.839843-5.835937 5.835938c-3.226563 3.226562-3.226563 8.453125 0 11.679687 1.609375 1.609375 3.726563 2.417969 5.835937 2.417969 2.113282 0 4.226563-.808594 5.839844-2.417969l5.839844-5.839844 5.839844 5.839844c1.613281 1.609375 3.726562 2.417969 5.839844 2.417969 2.109374 0 4.226562-.808594 5.835937-2.417969 3.226563-3.226562 3.226563-8.453125 0-11.679687l-5.835937-5.835938 5.835937-5.839843c3.226563-3.226563 3.226563-8.453126 0-11.675782zm0 0"/></svg>