<?xml version="1.0" encoding="iso-8859-1"?>
<!-- Generator: Adobe Illustrator 19.0.0, SVG Export Plug-In . SVG Version: 6.00 Build 0)  -->
<svg version="1.1" id="Capa_1" xmlns="http://www.w3.org/2000/svg" xmlns:xlink="http://www.w3.org/1999/xlink" x="0px" y="0px"
	 viewBox="0 0 512 512" style="enable-background:new 0 0 512 512;" xml:space="preserve">
<g>
	<g>
		<path d="M64,192c-35.285,0-64,28.715-64,64s28.715,64,64,64s64-28.715,64-64S99.285,192,64,192z M64,298.667
			c-23.531,0-42.667-19.136-42.667-42.667S40.469,213.333,64,213.333c23.531,0,42.667,19.136,42.667,42.667
			S87.531,298.667,64,298.667z"/>
	</g>
</g>
<g>
	<g>
		<path d="M256,192c-35.285,0-64,28.715-64,64s28.715,64,64,64s64-28.715,64-64S291.285,192,256,192z M256,298.667
			c-23.531,0-42.667-19.136-42.667-42.667s19.136-42.667,42.667-42.667s42.667,19.136,42.667,42.667S279.531,298.667,256,298.667z"
			/>
	</g>
</g>
<g>
	<g>
		<path d="M448,192c-35.285,0-64,28.715-64,64s28.715,64,64,64c35.285,0,64-28.715,64-64S483.285,192,448,192z M448,298.667
			c-23.531,0-42.667-19.136-42.667-42.667s19.136-42.667,42.667-42.667c23.531,0,42.667,19.136,42.667,42.667
			S471.531,298.667,448,298.667z"/>
	</g>
</g>
<g>
</g>
<g>
</g>
<g>
</g>
<g>
</g>
<g>
</g>
<g>
</g>
<g>
</g>
<g>
</g>
<g>
</g>
<g>
</g>
<g>
</g>
<g>
</g>
<g>
</g>
<g>
</g>
<g>
</g>
</svg>
