<?xml version="1.0" encoding="iso-8859-1"?>
<!-- Generator: Adobe Illustrator 19.0.0, SVG Export Plug-In . SVG Version: 6.00 Build 0)  -->
<svg version="1.1" id="Layer_1" xmlns="http://www.w3.org/2000/svg" xmlns:xlink="http://www.w3.org/1999/xlink" x="0px" y="0px"
	 viewBox="0 0 512.001 512.001" style="enable-background:new 0 0 512.001 512.001;" xml:space="preserve">
<g>
	<g>
		<path d="M485.699,428.109L367.98,310.392c-2.619-2.618-6.452-3.612-10.012-2.594l-17.532,5.009
			c-1.016,0.291-1.98,0.736-2.859,1.323l-18.031,12.032l-26.585,17.74c-52.186-34.814-97.217-80.84-130.893-133.77l19.307-19.307
			c0.002-0.002,0.003-0.003,0.005-0.005l15.032-15.032c1.226-1.226,2.118-2.743,2.594-4.409l5.009-17.532
			c1.018-3.561,0.024-7.393-2.594-10.012L83.705,26.116c-2.828-2.827-7.044-3.741-10.792-2.337l-20.038,7.514
			c-1.362,0.511-2.6,1.308-3.63,2.337c-4.398,4.398-8.629,9.133-12.573,14.072c-0.002,0.002-0.004,0.004-0.005,0.006
			c-53.335,66.77-47.927,162.75,12.579,223.256L240.85,462.568c32.642,32.642,75.599,49.249,118.734,49.245
			c36.82-0.002,73.773-12.106,104.522-36.667c4.944-3.949,9.68-8.181,14.078-12.578c1.029-1.03,1.826-2.268,2.337-3.63l7.514-20.036
			C489.44,435.157,488.526,430.937,485.699,428.109z M62.143,49.599l11.784-4.418l108.832,108.833l-2.635,9.222l-5.952,5.952
			l-57.557-57.557L58.489,53.505C59.688,52.176,60.908,50.873,62.143,49.599z M255.272,448.147L63.667,256.543
			C13.243,206.119,6.377,127.651,45.8,69.658l113.951,113.951l-17.832,17.832c-3.33,3.33-3.946,8.509-1.49,12.528
			c36.842,60.287,87.69,112.408,147.05,150.728c3.413,2.204,7.811,2.17,11.191-0.085l25.241-16.844l118.246,118.246
			C384.164,505.438,305.697,498.571,255.272,448.147z M462.216,449.672c-1.273,1.235-2.577,2.453-3.906,3.654L341.209,336.224
			l6.363-4.245l10.229-2.924l108.833,108.833L462.216,449.672z"/>
	</g>
</g>
<g>
	<g>
		<path d="M274.797,426.202l-72.368-72.368c-3.982-3.982-10.439-3.981-14.422,0c-3.982,3.982-3.982,10.439,0,14.422l72.369,72.368
			c1.99,1.992,4.601,2.987,7.21,2.987s5.22-0.996,7.211-2.987C278.779,436.642,278.779,430.185,274.797,426.202z"/>
	</g>
</g>
<g>
	<g>
		<path d="M175.231,326.639l-4.856-4.857c-3.982-3.982-10.439-3.982-14.422,0c-3.982,3.982-3.982,10.439,0,14.422l4.857,4.857
			c1.992,1.992,4.601,2.987,7.21,2.987c2.609,0,5.22-0.995,7.211-2.987C179.213,337.079,179.213,330.622,175.231,326.639z"/>
	</g>
</g>
<g>
	<g>
		<path d="M244.392,130.35c-5.632,0-10.197,4.565-10.197,10.197c0,5.632,4.565,10.197,10.197,10.197
			c64.542,0,117.052,52.51,117.052,117.052c0,5.632,4.565,10.197,10.197,10.197s10.197-4.565,10.197-10.197
			C381.838,192.009,320.181,130.35,244.392,130.35z"/>
	</g>
</g>
<g>
	<g>
		<path d="M244.392,66.24c-5.632,0-10.197,4.565-10.197,10.197c0,5.632,4.565,10.197,10.197,10.197
			c99.893,0,181.162,81.269,181.162,181.162c0,5.632,4.565,10.197,10.197,10.197c5.632,0,10.197-4.565,10.197-10.197
			C445.948,156.658,355.53,66.24,244.392,66.24z"/>
	</g>
</g>
<g>
	<g>
		<path d="M433.62,78.568C383.075,28.024,315.872,0.187,244.392,0.187c-5.632,0-10.197,4.565-10.197,10.197
			c0,5.632,4.565,10.197,10.197,10.197c136.315,0,247.215,110.9,247.215,247.215c0,5.632,4.565,10.197,10.197,10.197
			c5.632,0,10.197-4.565,10.197-10.197C512.001,196.316,484.164,129.113,433.62,78.568z"/>
	</g>
</g>
<g>
</g>
<g>
</g>
<g>
</g>
<g>
</g>
<g>
</g>
<g>
</g>
<g>
</g>
<g>
</g>
<g>
</g>
<g>
</g>
<g>
</g>
<g>
</g>
<g>
</g>
<g>
</g>
<g>
</g>
</svg>
