<svg height="512pt" viewBox="0 0 512 512.00025" width="512pt" xmlns="http://www.w3.org/2000/svg"><path d="m511.363281 338.164062c-2.253906-12.179687-10.359375-22.464843-21.675781-27.507812-13.140625-5.859375-28.71875-3.625-39.726562 5.734375l-80.640626 69.355469c-3.328124-19.214844-20.121093-33.875-40.273437-33.875h-76.113281l-13.816406-8.453125c-22.449219-13.734375-48.226563-20.996094-74.546876-20.996094h-4.144531c-25.035156 0-48.984375 8.273437-68.425781 23.21875v-1.640625c0-11.027344-8.972656-20-20-20h-52c-11.027344 0-20 8.972656-20 20v148c0 11.027344 8.972656 20 20 20h52c7.382812 0 13.828125-4.03125 17.292969-10h76.707031c5.523438 0 10-4.476562 10-10s-4.476562-10-10-10h-74v-109.253906c17.5-19.316406 42.238281-30.324219 68.425781-30.324219h4.144531c22.632813 0 44.804688 6.246094 64.109376 18.058594l16.21875 9.921875c1.570312.960937 3.378906 1.46875 5.21875 1.46875h78.929687c11.511719 0 20.875 9.363281 20.875 20.875 0 11.167968-8.816406 20.316406-19.851563 20.851562-.070312 0-.140624 0-.210937 0h-103.527344c-5.519531 0-10 4.480469-10 10 0 5.523438 4.476563 10 10 10l102.714844.023438c.546875 0 1.089844-.011719 1.628906-.03125 9.054688-.1875 17.789063-3.527344 24.667969-9.441406l107.613281-92.558594c5.136719-4.367188 12.433594-5.414063 18.589844-2.667969 5.378906 2.398437 9.078125 7.09375 10.152344 12.886719 1.070312 5.789062-.699219 11.5-4.863281 15.664062l-93.9375 93.988282c-19.683594 19.691406-45.859376 30.539062-73.703126 30.539062h-63.195312c-5.523438 0-10 4.476562-10 10s4.476562 10 10 10h63.195312c33.1875 0 64.386719-12.925781 87.847657-36.402344l93.9375-93.984375c8.757812-8.761719 12.640625-21.265625 10.382812-33.449219zm-491.363281 153.835938-.011719-148h.011719 52v148zm0 0"/><path d="m63.003906 119.222656 74.996094 42.832032v68.140624c0 5.8125 2.90625 11.171876 7.777344 14.34375l75.816406 49.371094c6.804688 4.429688 14.605469 6.648438 22.40625 6.644532 7.800781 0 15.601562-2.214844 22.40625-6.644532l75.820312-49.371094c4.867188-3.171874 7.773438-8.53125 7.773438-14.34375v-68.140624l60.039062-34.289063v32.023437c-13.882812 4.28125-24 17.226563-24 32.496094v82.964844c0 5.519531 4.476563 10 10 10h48c5.523438 0 10-4.480469 10-10v-82.964844c0-15.269531-10.117187-28.21875-24-32.496094v-49.25c0-3.589843-1.925781-6.902343-5.042968-8.683593l-176.035156-100.539063c-3.074219-1.753906-6.847657-1.753906-9.921876 0l-176.035156 100.539063c-3.117187 1.777343-5.042968 5.09375-5.042968 8.683593 0 3.589844 1.925781 6.902344 5.042968 8.683594zm266.996094 109.410156-74.507812 48.515626c-6.980469 4.546874-16.003907 4.546874-22.984376 0l-74.507812-48.515626v-55.15625l81.042969 46.28125c1.535156.878907 3.246093 1.316407 4.957031 1.316407s3.425781-.4375 4.960938-1.316407l81.039062-46.28125zm104.039062 36.613282h-28v-72.960938c0-7.722656 6.277344-14 14-14 7.71875 0 14 6.277344 14 14zm-190.039062-243.730469 138.363281 79.023437h-110.429687c-4.375-11.160156-15.246094-19.089843-27.9375-19.089843-16.542969 0-30 13.460937-30 30 0 16.542969 13.457031 30 30 30 13.375 0 24.730468-8.800781 28.589844-20.910157h109.777343l-138.363281 79.019532-155.875-89.019532zm9.996094 89.933594c0 5.515625-4.484375 10-10 10s-10-4.484375-10-10c0-5.511719 4.484375-10 10-10s10 4.488281 10 10zm0 0"/><path d="m211 482c-2.628906 0-5.210938 1.070312-7.070312 2.929688-1.859376 1.859374-2.929688 4.441406-2.929688 7.070312s1.070312 5.210938 2.929688 7.070312c1.859374 1.859376 4.441406 2.929688 7.070312 2.929688s5.210938-1.070312 7.070312-2.929688c1.859376-1.859374 2.929688-4.441406 2.929688-7.070312s-1.070312-5.210938-2.929688-7.070312c-1.859374-1.859376-4.441406-2.929688-7.070312-2.929688zm0 0"/></svg>