<svg id="Capa_1" enable-background="new 0 0 512 512" height="512" viewBox="0 0 512 512" width="512" xmlns="http://www.w3.org/2000/svg"><g id="XMLID_1429_"><g id="XMLID_194_"><path id="XMLID_195_" d="m126 206h-36c-5.523 0-10 4.477-10 10s4.477 10 10 10h21.777l-23.954 66.616c-1.869 5.197.83 10.925 6.026 12.794 1.118.402 2.26.593 3.383.593 4.099 0 7.944-2.54 9.411-6.619l28.766-80c1.102-3.064.643-6.472-1.23-9.135-1.871-2.664-4.923-4.249-8.179-4.249z"/><path id="XMLID_196_" d="m242 206h-36c-5.523 0-10 4.477-10 10s4.477 10 10 10h21.777l-23.954 66.616c-1.869 5.197.83 10.925 6.026 12.794 1.118.402 2.26.593 3.383.593 4.099 0 7.944-2.54 9.411-6.619l28.766-80c1.102-3.064.643-6.472-1.23-9.135-1.871-2.664-4.923-4.249-8.179-4.249z"/><path id="XMLID_197_" d="m322 226h21.777l-23.954 66.616c-1.869 5.197.83 10.925 6.026 12.794 1.118.402 2.26.593 3.383.593 4.099 0 7.944-2.54 9.411-6.619l28.766-80c1.102-3.064.643-6.472-1.23-9.135s-4.924-4.249-8.18-4.249h-36c-5.523 0-10 4.477-10 10s4.478 10 10.001 10z"/><path id="XMLID_200_" d="m398 162h-348c-5.523 0-10 4.477-10 10v168c0 5.523 4.477 10 10 10h348c5.523 0 10-4.477 10-10v-168c0-5.523-4.477-10-10-10zm-338 20h96v148h-96zm116 0h96v148h-96zm212 148h-96v-148h96z"/><path id="XMLID_1924_" d="m512 34c0-18.748-15.252-34-34-34s-34 15.252-34 34c0 15.269 10.118 28.217 24 32.497v158.316c0 11.309-8.86 20.563-20 21.247v-114.06c0-5.523-4.477-10-10-10h-36.88c-27.888-73.269-98.168-122-177.12-122s-149.232 48.731-177.12 122h-36.88c-5.523 0-10 4.477-10 10v248c0 5.523 4.477 10 10 10h30v112c0 5.523 4.477 10 10 10h348c5.523 0 10-4.477 10-10v-112h30c5.523 0 10-4.477 10-10v-113.906c22.173-.698 40-18.94 40-41.28v-158.317c13.882-4.28 24-17.228 24-32.497zm-124 458h-328v-102h328zm40-122h-408v-228h158.999c5.523 0 10-4.477 10-10s-4.477-10-10-10h-110.532c26.671-61.551 87.501-102 155.533-102s128.862 40.449 155.533 102h-110.533c-5.523 0-10 4.477-10 10s4.477 10 10 10h159zm50-322c-7.72 0-14-6.28-14-14s6.28-14 14-14 14 6.28 14 14-6.28 14-14 14z"/><path id="XMLID_1927_" d="m112.333 451h223.333c5.523 0 10-4.477 10-10s-4.477-10-10-10h-223.333c-5.523 0-10 4.477-10 10s4.478 10 10 10z"/><path id="XMLID_1928_" d="m224 142c2.63 0 5.21-1.07 7.07-2.93s2.93-4.44 2.93-7.07-1.07-5.21-2.93-7.07-4.44-2.93-7.07-2.93-5.21 1.07-7.07 2.93-2.93 4.44-2.93 7.07 1.07 5.21 2.93 7.07 4.44 2.93 7.07 2.93z"/></g></g></svg>