<?xml version="1.0"?>
<svg xmlns="http://www.w3.org/2000/svg" viewBox="0 0 64 64" width="512" height="512"><g id="Layer_21" data-name="Layer 21"><path d="M59,49.59V34.16A15,15,0,0,0,37.84,13H30.7A15,15,0,1,0,5,26.16V49.59l-3.71,3.7A1,1,0,0,0,1,54v4a5,5,0,0,0,5,5H58a5,5,0,0,0,5-5V54a1,1,0,0,0-.29-.71ZM9,29.26V46a1,1,0,0,0,1,1H54a1,1,0,0,0,1-1V37.26A15.5,15.5,0,0,0,57,36V49H7V28A15.5,15.5,0,0,0,9,29.26ZM50,27a2,2,0,0,1-4,0Zm2-6a4,4,0,0,1-8,0V19a4,4,0,0,1,8,0Zm-8,6.1a4,4,0,0,0,8,0A5,5,0,0,1,56,32v2.23a12.94,12.94,0,0,1-16,0V32A5,5,0,0,1,44,27.1ZM48,39a14.81,14.81,0,0,0,5-.88V45H11V30.12A14.81,14.81,0,0,0,16,31,15,15,0,0,0,30.7,19h3.18A14.81,14.81,0,0,0,33,24,15,15,0,0,0,48,39Zm9.59,12,2,2H4.41l2-2ZM48,11A13,13,0,0,1,58,32.29V32a7,7,0,0,0-5.66-6.87A6,6,0,0,0,54,21V19a6,6,0,0,0-12,0v2a6,6,0,0,0,1.66,4.13A7,7,0,0,0,38,32v.29A13,13,0,0,1,48,11ZM36,15a15.5,15.5,0,0,0-1.29,2H31c0-.33.05-.66.05-1s0-.67-.05-1ZM16,3A13,13,0,1,1,3,16,13,13,0,0,1,16,3ZM58,61H6a3,3,0,0,1-3-3V55H61v3A3,3,0,0,1,58,61Z"/><path d="M39.08,5.65a15.57,15.57,0,0,0-2-.82l-.63,1.9a14.3,14.3,0,0,1,1.73.71Z"/><path d="M35,4.29A15.15,15.15,0,0,0,32.91,4L32.8,6a14.76,14.76,0,0,1,1.86.23Z"/><path d="M30.92,6l-.15-2a15,15,0,0,0-2.12.3l.42,2A14.22,14.22,0,0,1,30.92,6Z"/><path d="M42.62,8a15.35,15.35,0,0,0-1.69-1.32L39.81,8.38a13.92,13.92,0,0,1,1.48,1.15Z"/><path d="M24.92,34.35a15.57,15.57,0,0,0,2,.82l.63-1.9a14.3,14.3,0,0,1-1.73-.71Z"/><path d="M33.08,34l.15,2a15,15,0,0,0,2.12-.3l-.42-2A14.22,14.22,0,0,1,33.08,34Z"/><path d="M29,35.71a15.15,15.15,0,0,0,2.12.26l.11-2a14.76,14.76,0,0,1-1.86-.23Z"/><path d="M21.38,32a15.35,15.35,0,0,0,1.69,1.32l1.12-1.66a13.92,13.92,0,0,1-1.48-1.15Z"/><path d="M16,21a2,2,0,0,1-2-2H12a4,4,0,0,0,3,3.86V25h2V22.86A4,4,0,0,0,16,15a2,2,0,1,1,2-2h2a4,4,0,0,0-3-3.86V7H15V9.14A4,4,0,0,0,16,17a2,2,0,0,1,0,4Z"/></g></svg>
