<?xml version="1.0" encoding="iso-8859-1"?>
<!-- Generator: Adobe Illustrator 19.0.0, SVG Export Plug-In . SVG Version: 6.00 Build 0)  -->
<svg version="1.1" id="Capa_1" xmlns="http://www.w3.org/2000/svg" xmlns:xlink="http://www.w3.org/1999/xlink" x="0px" y="0px"
	 viewBox="0 0 512.001 512.001" style="enable-background:new 0 0 512.001 512.001;" xml:space="preserve">
<g>
	<g>
		<path d="M447.145,249.998c1.782,1.326,3.879,1.977,5.966,1.977c2.578,0,5.143-0.994,7.081-2.936l48.887-48.986
			c2.052-2.056,3.108-4.901,2.895-7.798c-0.213-2.896-1.674-5.557-4.004-7.29L458,147.795V48.001c0-5.523-4.478-10-10-10h-64
			c-5.522,0-10,4.477-10,10v37.311L261.969,1.978c-3.543-2.636-8.395-2.636-11.938,0l-87.565,65.136
			c-4.431,3.296-5.352,9.561-2.055,13.992c3.297,4.432,9.562,5.352,13.992,2.055L256,22.465L486.753,194.11l-34.609,34.68
			L261.969,87.329c-3.543-2.636-8.395-2.636-11.938,0L59.857,228.79l-34.609-34.68l89.673-66.703
			c4.431-3.296,5.352-9.561,2.055-13.992c-3.297-4.432-9.561-5.351-13.992-2.055L4.031,184.965c-2.33,1.733-3.791,4.394-4.004,7.29
			c-0.214,2.896,0.843,5.742,2.895,7.798l48.887,48.986c3.507,3.514,9.062,3.923,13.047,0.959L72,244.683v79.318H20
			c-11.028,0-20,8.972-20,20v148c0,11.028,8.972,20,20,20h68c9.989,0,18.267-7.369,19.742-16.951l46.509,16.383
			c1.067,0.376,2.19,0.568,3.322,0.568h142.792c16.521,0,32.563-5.877,45.173-16.549l108.17-91.543
			c8.569-7.252,13.646-17.418,14.292-28.626c0.647-11.208-3.225-21.891-10.902-30.081c-4.854-5.178-10.766-8.798-17.098-10.843
			v-89.676L447.145,249.998z M438,132.918l-44-32.729V58.001h44V132.918z M88,492.001H20v-148h24v74c0,5.523,4.478,10,10,10
			s10-4.477,10-10v-74h24v7.986c0,0.005,0,0.009,0,0.014s0,0.009,0,0.014l0.011,128.549c-0.011,0.231-0.005,0.461,0,0.69
			l0.002,10.747C88.013,492.001,88.009,492.001,88,492.001z M442.505,358.879c3.893,4.152,5.855,9.568,5.528,15.25
			c-0.328,5.682-2.901,10.836-7.246,14.513l-108.17,91.543c-9.003,7.62-20.457,11.816-32.253,11.816H159.283L108,473.936V362.001
			h73.355c9.89,0,19.466,2.899,27.694,8.385l66.899,44.599c2.986,1.991,4.977,5.033,5.606,8.567
			c0.629,3.534-0.189,7.077-2.305,9.976c-3.7,5.069-10.497,6.789-16.159,4.081l-57.233-27.338
			c-4.986-2.381-10.954-0.271-13.334,4.713c-2.381,4.983-0.271,10.953,4.713,13.333l57.233,27.338
			c4.564,2.181,9.418,3.227,14.219,3.227c10.287,0,20.326-4.809,26.717-13.566c5.359-7.344,7.433-16.319,5.84-25.271
			c-1.594-8.951-6.638-16.658-14.203-21.702l-66.899-44.599c-11.524-7.682-24.937-11.743-38.787-11.743h-73.457
			c-0.874-8.757-7.418-15.868-15.898-17.597v-94.598l164-121.991l164,121.991v103.278H420c-6.65,1.246-13.072,4.163-18.599,8.808
			l-79.604,66.912c-4.228,3.553-4.774,9.861-1.221,14.089c3.555,4.228,9.862,4.773,14.09,1.22l79.604-66.912
			C422.633,350.172,435.036,350.909,442.505,358.879z"/>
	</g>
</g>
<g>
	<g>
		<path d="M146.649,89.531c-1.859-1.86-4.439-2.93-7.069-2.93c-2.641,0-5.221,1.07-7.08,2.93c-1.86,1.86-2.92,4.44-2.92,7.07
			s1.06,5.21,2.92,7.07c1.87,1.86,4.44,2.93,7.08,2.93c2.63,0,5.199-1.07,7.069-2.93c1.86-1.86,2.931-4.44,2.931-7.07
			S148.51,91.391,146.649,89.531z"/>
	</g>
</g>
<g>
	<g>
		<path d="M294.24,193.245c-4.809-2.716-10.909-1.019-13.624,3.792L214.07,314.914c-2.715,4.809-1.018,10.909,3.792,13.624
			c1.554,0.877,3.241,1.294,4.907,1.294c3.489,0,6.879-1.83,8.717-5.086l66.546-117.877
			C300.747,202.06,299.05,195.96,294.24,193.245z"/>
	</g>
</g>
<g>
	<g>
		<path d="M300.048,268.907c-18.748,0-34,15.252-34,34c0,18.748,15.252,34,34,34s34-15.252,34-34S318.796,268.907,300.048,268.907z
			 M300.048,316.907c-7.72,0-14-6.28-14-14c0-7.72,6.28-14,14-14c7.72,0,14,6.28,14,14
			C314.048,310.627,307.768,316.907,300.048,316.907z"/>
	</g>
</g>
<g>
	<g>
		<path d="M212.053,172.012c-18.748,0-34,15.252-34,34s15.252,34,34,34c18.748,0,34-15.252,34-34S230.801,172.012,212.053,172.012z
			 M212.053,220.012c-7.72,0-14-6.28-14-14c0-7.72,6.28-14,14-14c7.72,0,14,6.28,14,14
			C226.053,213.732,219.773,220.012,212.053,220.012z"/>
	</g>
</g>
<g>
	<g>
		<path d="M61.569,450.431c-1.859-1.86-4.439-2.93-7.069-2.93s-5.21,1.07-7.07,2.93c-1.87,1.86-2.93,4.44-2.93,7.07
			s1.06,5.21,2.93,7.07c1.86,1.86,4.44,2.93,7.07,2.93s5.21-1.07,7.069-2.93c1.86-1.86,2.931-4.44,2.931-7.07
			S63.43,452.291,61.569,450.431z"/>
	</g>
</g>
<g>
</g>
<g>
</g>
<g>
</g>
<g>
</g>
<g>
</g>
<g>
</g>
<g>
</g>
<g>
</g>
<g>
</g>
<g>
</g>
<g>
</g>
<g>
</g>
<g>
</g>
<g>
</g>
<g>
</g>
</svg>
