<svg viewBox="0 -9 512.00011 512" xmlns="http://www.w3.org/2000/svg"><path d="m464.269531 217.160156c-30.484375-30.269531-70.882812-46.917968-113.816406-46.917968-.203125 0-.40625 0-.609375 0-9.089844.03125-18.152344.832031-27.054688 2.367187.246094-3.640625.382813-7.308594.382813-11.003906 0-89.109375-72.484375-161.605469-161.585937-161.605469-89.097657 0-161.585938 72.496094-161.585938 161.601562 0 89.109376 72.484375 161.605469 161.585938 161.605469 9.414062 0 18.640624-.820312 27.617187-2.371093-.257813 3.855468-.390625 7.730468-.375 11.585937.011719 3.429687.132813 6.890625.359375 10.289063.265625 3.964843 3.5625 7.003906 7.476562 7.003906.167969 0 .335938-.007813.503907-.019532 4.136719-.273437 7.261719-3.847656 6.988281-7.980468-.207031-3.085938-.316406-6.234375-.328125-9.351563-.019531-4.984375.214844-9.996093.703125-14.960937 8.757812-2.417969 17.222656-5.558594 25.324219-9.351563-1.558594 7.933594-2.359375 16.03125-2.328125 24.230469.113281 32.824219 13.003906 63.644531 36.300781 86.773438 23.1875 23.027343 53.914063 35.691406 86.570313 35.691406.152343 0 .308593 0 .457031-.003906 67.765625-.242188 122.699219-55.574219 122.453125-123.335938-.242188-67.625-55.328125-122.476562-122.894532-122.476562-.140624 0-.289062.003906-.433593.003906-12.246094.039062-24.175781 1.851562-35.644531 5.382812 2.910156-8.410156 5.140624-17.136718 6.632812-26.109375 9.46875-1.929687 19.175781-2.933593 28.925781-2.964843h.550781c38.949219 0 75.601563 15.101562 103.253907 42.5625 27.785156 27.589843 43.160156 64.351562 43.300781 103.515624.292969 80.828126-65.226562 146.828126-146.058594 147.121094-.179687.003906-.351562.003906-.53125.003906-31.828125 0-62.09375-10.027343-87.546875-29.015624-24.761719-18.472657-43.40625-44.808594-52.496093-74.15625-1.226563-3.953126-5.425782-6.167969-9.382813-4.945313-3.957031 1.226563-6.171875 5.425781-4.945313 9.382813 10.019532 32.359374 30.566407 61.390624 57.855469 81.742187 28.066407 20.9375 61.421875 31.992187 96.515625 31.992187.191406 0 .390625 0 .585938-.003906 89.101562-.324218 161.328125-73.078125 161.003906-162.175781-.152344-43.167969-17.101562-83.691406-47.730469-114.105469zm-449.269531-55.558594c0-80.835937 65.757812-146.601562 146.585938-146.601562 80.828124 0 146.585937 65.765625 146.585937 146.601562 0 80.835938-65.757813 146.605469-146.585937 146.605469-80.828126 0-146.585938-65.769531-146.585938-146.605469zm335.035156 62.332032c.128906 0 .25-.003906.378906-.003906 59.3125 0 107.679688 48.160156 107.894532 107.53125.214844 59.492187-48.011719 108.066406-107.507813 108.28125-.132812 0-.265625 0-.398437 0-28.667969 0-55.648438-11.117188-76.003906-31.332032-20.453126-20.308594-31.769532-47.363281-31.871094-76.1875-.042969-11.6875 1.789062-23.136718 5.402344-34.082031 24.910156-15.8125 45.214843-38.253906 58.429687-64.820313 13.75-6.175781 28.429687-9.335937 43.675781-9.386718zm0 0"/><path d="m385.035156 323.082031h.09375c14.082032-.050781 25.492188-11.546875 25.445313-25.625-.050781-14.050781-11.496094-25.445312-25.535157-25.445312-.027343 0-.0625 0-.089843 0-6.820313.023437-13.222657 2.703125-18.027344 7.542969-4.804687 4.839843-7.441406 11.261718-7.414063 18.082031.023438 6.820312 2.703126 13.226562 7.542969 18.03125 4.816407 4.78125 11.199219 7.414062 17.984375 7.414062zm-7.46875-32.957031c1.980469-1.996094 4.621094-3.105469 7.433594-3.113281h.039062c5.789063 0 10.511719 4.703125 10.535157 10.5.019531 5.808593-4.691407 10.550781-10.496094 10.570312-.015625 0-.027344 0-.039063 0-2.800781 0-5.433593-1.085937-7.421874-3.058593-1.996094-1.984376-3.101563-4.625-3.109376-7.4375-.007812-2.816407 1.074219-5.464844 3.058594-7.460938zm0 0"/><path d="m315.789062 391.667969h.09375c6.820313-.023438 13.222657-2.703125 18.03125-7.542969 4.804688-4.839844 7.4375-11.261719 7.410157-18.082031-.023438-6.820313-2.703125-13.222657-7.539063-18.03125-4.820312-4.78125-11.203125-7.414063-17.992187-7.414063-.027344 0-.0625 0-.089844 0-14.078125.050782-25.492187 11.546875-25.441406 25.628906.023437 6.820313 2.703125 13.222657 7.542969 18.027344 4.816406 4.78125 11.199218 7.414063 17.984374 7.414063zm-.035156-36.070313h.039063c2.800781 0 5.433593 1.085938 7.421875 3.058594 1.996094 1.984375 3.101562 4.625 3.109375 7.4375v.003906c.011719 2.8125-1.074219 5.460938-3.058594 7.457032-1.980469 1.996093-4.621094 3.105468-7.4375 3.113281-.011719 0-.023437 0-.039063 0-2.796874 0-5.433593-1.085938-7.417968-3.058594-1.996094-1.984375-3.101563-4.625-3.113282-7.4375-.019531-5.808594 4.6875-10.550781 10.496094-10.574219zm0 0"/><path d="m222.824219 55.019531c-3.59375-2.066406-8.175781-.832031-10.242188 2.757813-2.066406 3.589844-.835937 8.175781 2.753907 10.242187 33.398437 19.230469 54.140624 55.089844 54.140624 93.582031 0 59.5-48.398437 107.90625-107.890624 107.90625-59.492188 0-107.894532-48.40625-107.894532-107.90625s48.402344-107.902343 107.894532-107.902343c7.328124 0 14.644531.734375 21.75 2.191406 4.058593.824219 8.019531-1.785156 8.851562-5.84375s-1.785156-8.019531-5.839844-8.851563c-8.09375-1.65625-16.425781-2.5-24.761718-2.5-67.761719 0-122.894532 55.136719-122.894532 122.90625 0 67.769532 55.132813 122.90625 122.894532 122.90625 67.761718 0 122.890624-55.136718 122.890624-122.90625 0-43.839843-23.625-84.679687-61.652343-106.582031zm0 0"/><path d="m126.839844 101.898438c-14.078125 0-25.53125 11.453124-25.53125 25.535156 0 14.078125 11.453125 25.535156 25.53125 25.535156s25.53125-11.457031 25.53125-25.535156c0-14.082032-11.453125-25.535156-25.53125-25.535156zm0 36.070312c-5.808594 0-10.53125-4.726562-10.53125-10.535156s4.726562-10.535156 10.53125-10.535156c5.808594 0 10.53125 4.726562 10.53125 10.535156s-4.722656 10.535156-10.53125 10.535156zm0 0"/><path d="m196.332031 101.898438c-14.082031 0-25.535156 11.453124-25.535156 25.535156 0 14.078125 11.453125 25.535156 25.535156 25.535156 14.078125 0 25.53125-11.457031 25.53125-25.535156 0-14.082032-11.453125-25.535156-25.53125-25.535156zm0 36.070312c-5.808593 0-10.535156-4.726562-10.535156-10.535156s4.726563-10.535156 10.535156-10.535156c5.804688 0 10.53125 4.726562 10.53125 10.535156s-4.722656 10.535156-10.53125 10.535156zm0 0"/><path d="m126.839844 170.238281c-14.078125 0-25.53125 11.453125-25.53125 25.535157 0 14.078124 11.453125 25.535156 25.53125 25.535156s25.53125-11.457032 25.53125-25.535156c0-14.082032-11.453125-25.535157-25.53125-25.535157zm0 36.070313c-5.808594 0-10.53125-4.726563-10.53125-10.535156 0-5.808594 4.726562-10.535157 10.53125-10.535157 5.808594 0 10.53125 4.726563 10.53125 10.535157 0 5.808593-4.722656 10.535156-10.53125 10.535156zm0 0"/><path d="m196.332031 170.238281c-14.082031 0-25.535156 11.453125-25.535156 25.535157 0 14.078124 11.453125 25.535156 25.535156 25.535156 14.078125 0 25.53125-11.457032 25.53125-25.535156 0-14.082032-11.453125-25.535157-25.53125-25.535157zm0 36.070313c-5.808593 0-10.535156-4.726563-10.535156-10.535156 0-5.808594 4.726563-10.535157 10.535156-10.535157 5.804688 0 10.53125 4.726563 10.53125 10.535157 0 5.808593-4.722656 10.535156-10.53125 10.535156zm0 0"/></svg>