<?xml version="1.0" encoding="iso-8859-1"?>
<!-- Generator: Adobe Illustrator 19.0.0, SVG Export Plug-In . SVG Version: 6.00 Build 0)  -->
<svg version="1.1" id="Capa_1" xmlns="http://www.w3.org/2000/svg" xmlns:xlink="http://www.w3.org/1999/xlink" x="0px" y="0px"
	 viewBox="0 0 480.005 480.005" style="enable-background:new 0 0 480.005 480.005;" xml:space="preserve">
<g>
	<g>
		<rect x="112.002" y="208.005" width="16" height="16"/>
	</g>
</g>
<g>
	<g>
		<rect x="152.002" y="192.005" width="16" height="16"/>
	</g>
</g>
<g>
	<g>
		<rect x="200.002" y="208.005" width="16" height="16"/>
	</g>
</g>
<g>
	<g>
		<rect x="248.002" y="192.005" width="16" height="16"/>
	</g>
</g>
<g>
	<g>
		<rect x="304.002" y="192.005" width="16" height="16"/>
	</g>
</g>
<g>
	<g>
		<rect x="344.002" y="208.005" width="16" height="16"/>
	</g>
</g>
<g>
	<g>
		<rect x="248.002" y="48.005" width="16" height="16"/>
	</g>
</g>
<g>
	<g>
		<rect x="184.002" y="112.005" width="16" height="16"/>
	</g>
</g>
<g>
	<g>
		<rect x="224.002" y="128.005" width="16" height="16"/>
	</g>
</g>
<g>
	<g>
		<rect x="296.002" y="112.005" width="16" height="16"/>
	</g>
</g>
<g>
	<g>
		<path d="M403.514,240.181c17.819-19.562,16.406-49.865-3.156-67.684c-8.847-8.059-20.389-12.515-32.356-12.492h-20.32
			c17.717-19.66,16.142-49.96-3.518-67.678c-8.823-7.951-20.285-12.343-32.162-12.322h-0.552c-4.056-31.967-31.225-55.946-63.448-56
			h-10.968c-5.987,0.189-11.305-3.799-12.8-9.6c-0.316-1.584-0.316-3.216,0-4.8c0.413-2.382-0.262-4.824-1.84-6.656
			c-1.6-1.866-3.934-2.941-6.392-2.944c-20.547-0.286-38.924,12.736-45.464,32.216c-5.044,14.874-2.575,31.27,6.624,44
			c0.974,1.319,2.015,2.588,3.12,3.8h-12.28c-26.465-0.045-47.957,21.372-48.002,47.838c-0.02,11.877,4.371,23.339,12.322,32.162
			h-20.32c-26.461-0.051-47.953,21.359-48.004,47.82c-0.023,11.967,4.433,23.509,12.492,32.356
			c-25.055,1.838-44.455,22.685-44.488,47.808c-0.004,15.757,7.821,30.487,20.88,39.304l51.568,147.336
			c1.122,3.21,4.151,5.36,7.552,5.36h256c3.401,0,6.43-2.15,7.552-5.36l51.568-147.336c13.059-8.817,20.884-23.547,20.88-39.304
			C447.978,262.876,428.576,242.019,403.514,240.181z M185.762,37.205c3.544-10.216,12.126-17.868,22.68-20.224
			c0,0.16,0.056,0.32,0.08,0.48c2.918,13.348,14.85,22.783,28.512,22.544h10.968c23.413,0.029,43.401,16.92,47.336,40h-79.336
			c-10.245-0.021-19.866-4.923-25.904-13.2C183.957,58.218,182.342,47.192,185.762,37.205z M168.002,96.005h144
			c17.673,0,32,14.327,32,32s-14.327,32-32,32h-144c-17.673,0-32-14.327-32-32S150.329,96.005,168.002,96.005z M112.002,176.005h256
			c17.673,0,32,14.327,32,32s-14.327,32-32,32h-256c-17.673,0-32-14.327-32-32S94.329,176.005,112.002,176.005z M117.682,464.005
			L65.09,313.741c4.526-4.432,10.481-7.109,16.8-7.552c7.723-0.508,15.293,2.314,20.8,7.752l1.856,1.856l22.168,148.208H117.682z
			 M142.898,464.005l-22.4-149.2l4.616-4.616c10.432-10.401,27.312-10.401,37.744,0l5.304,5.288l7.424,148.528H142.898z
			 M232.002,464.005h-40.384l-7.448-148.856l4.96-4.96c10.432-10.401,27.312-10.401,37.744,0l5.128,5.128V464.005z M288.386,464.005
			h-40.384V315.317l5.128-5.128c10.432-10.401,27.312-10.401,37.744,0l4.96,4.96L288.386,464.005z M304.418,464.005l7.424-148.528
			l5.288-5.288c10.432-10.401,27.312-10.401,37.744,0l4.616,4.616l-22.384,149.2H304.418z M362.322,464.005h-9.032l22.232-148.208
			l1.856-1.856c10.34-10.35,27.087-10.439,37.536-0.2L362.322,464.005z M427.698,303.949l-0.096-0.088
			c-1.654-1.768-3.456-3.392-5.384-4.856c-0.304-0.232-0.6-0.472-0.904-0.696c-1.885-1.363-3.878-2.57-5.96-3.608
			c-0.376-0.192-0.752-0.368-1.144-0.552c-2.124-0.981-4.327-1.784-6.584-2.4c-0.32-0.096-0.648-0.152-0.976-0.232
			c-2.418-0.628-4.886-1.043-7.376-1.24c-1.016-0.072-2.024-0.104-3.032-0.104c-1.008,0-1.928,0.192-2.896,0.256
			c-1.264,0.088-2.52,0.152-3.768,0.344c-1.4,0.224-2.752,0.592-4.12,0.952c-1.224,0.32-2.448,0.584-3.64,1.008
			c-1.495,0.58-2.956,1.245-4.376,1.992c-0.944,0.464-1.92,0.8-2.824,1.36c-2.328,1.36-4.522,2.938-6.552,4.712l-1.88-1.88
			c-16.683-16.639-43.685-16.639-60.368,0l-1.816,1.776l-1.816-1.816c-16.683-16.639-43.685-16.639-60.368,0l-1.816,1.816
			l-1.816-1.816c-16.683-16.639-43.685-16.639-60.368,0l-1.816,1.816l-1.816-1.816c-16.683-16.639-43.685-16.639-60.368,0
			l-1.88,1.88c-10.5-9.352-24.98-12.835-38.584-9.28c-0.328,0.08-0.656,0.136-0.976,0.232c-2.257,0.616-4.46,1.419-6.584,2.4
			c-0.392,0.184-0.8,0.36-1.144,0.552c-2.082,1.038-4.075,2.245-5.96,3.608c-0.304,0.224-0.6,0.464-0.904,0.696
			c-1.928,1.464-3.729,3.088-5.384,4.856l-0.096,0.088c-2.825-4.824-4.311-10.314-4.304-15.904c0-17.673,14.327-32,32-32h320
			c17.673,0,32,14.327,32,32C432.016,293.608,430.53,299.113,427.698,303.949z"/>
	</g>
</g>
<g>
</g>
<g>
</g>
<g>
</g>
<g>
</g>
<g>
</g>
<g>
</g>
<g>
</g>
<g>
</g>
<g>
</g>
<g>
</g>
<g>
</g>
<g>
</g>
<g>
</g>
<g>
</g>
<g>
</g>
</svg>
