<?xml version="1.0" encoding="iso-8859-1"?>
<!-- Generator: Adobe Illustrator 19.0.0, SVG Export Plug-In . SVG Version: 6.00 Build 0)  -->
<svg version="1.1" id="Capa_1" xmlns="http://www.w3.org/2000/svg" xmlns:xlink="http://www.w3.org/1999/xlink" x="0px" y="0px"
	 viewBox="0 0 424 424" style="enable-background:new 0 0 424 424;" xml:space="preserve">
<g>
	<g>
		<path d="M410.4,312.4L220,188.4v-28.8c24-4,42.4-24.8,42.4-50.4c0-28-22.4-50.4-50.4-50.4s-50.4,22.4-50.4,50.4c0,4.8,3.2,8,8,8
			c4.8,0,8-3.2,8-8c0-19.2,15.2-34.4,34.4-34.4s34.4,15.2,34.4,34.4s-15.2,34.4-34.4,34.4c-4.8,0-8,3.2-8,8v36.8L12.8,313.2
			c-8,5.6-12.8,14.4-12.8,24c0,15.2,11.2,27.2,25.6,28h372c14.4-0.8,26.4-12.8,26.4-28C424,326.8,418.4,318,410.4,312.4z M395.2,350
			H28.8c-7.2,0-12.8-5.6-12.8-12.8c0-4,2.4-8,5.6-10.4L212,202l189.6,123.2c4,2.4,7.2,6.4,7.2,11.2C408,344.4,402.4,350,395.2,350z"
			/>
	</g>
</g>
<g>
</g>
<g>
</g>
<g>
</g>
<g>
</g>
<g>
</g>
<g>
</g>
<g>
</g>
<g>
</g>
<g>
</g>
<g>
</g>
<g>
</g>
<g>
</g>
<g>
</g>
<g>
</g>
<g>
</g>
</svg>
