<svg id="Capa_1" enable-background="new 0 0 512 512" height="512" viewBox="0 0 512 512" width="512" xmlns="http://www.w3.org/2000/svg"><g><g><g><path d="m255.937 179.539c-5.827 0-11.326 2.554-15.088 7.008-2.663 3.154-2.266 7.868.887 10.531 3.154 2.664 7.868 2.266 10.531-.886.916-1.085 2.254-1.707 3.67-1.707 1.446 0 2.802.644 3.72 1.766 1.478 1.807 3.624 2.742 5.789 2.742 1.664 0 3.339-.553 4.727-1.688 3.195-2.614 3.667-7.321 1.054-10.516-3.769-4.607-9.341-7.25-15.29-7.25z"/><path d="m255.81 154.31c-13.155 0-25.572 5.768-34.068 15.826-2.663 3.153-2.266 7.868.886 10.531 3.153 2.664 7.869 2.266 10.531-.886 5.65-6.689 13.905-10.524 22.65-10.524 8.928 0 17.295 3.969 22.955 10.89 1.477 1.806 3.624 2.742 5.789 2.742 1.664 0 3.338-.553 4.727-1.688 3.195-2.613 3.667-7.321 1.054-10.516-8.51-10.406-21.094-16.375-34.524-16.375z"/><path d="m232.494 318.147c-4.127 0-7.473 3.345-7.473 7.473v6.01c0 4.128 3.346 7.473 7.473 7.473s7.473-3.345 7.473-7.473v-6.01c0-4.128-3.345-7.473-7.473-7.473z"/><path d="m279.506 339.103c4.127 0 7.473-3.345 7.473-7.473v-6.01c0-4.128-3.346-7.473-7.473-7.473s-7.473 3.345-7.473 7.473v6.01c0 4.127 3.345 7.473 7.473 7.473z"/><path d="m486.391 209.819-220.034-205.747c-5.807-5.43-14.907-5.43-20.715 0l-220.033 205.747c-12.817 11.985-16.776 29.569-10.334 45.891s21.345 26.461 38.892 26.461c7.267 0 14.268-1.863 20.454-5.343v227.698c0 4.128 3.346 7.473 7.473 7.473h347.813c4.127 0 7.473-3.345 7.473-7.473v-227.697c6.186 3.479 13.187 5.343 20.454 5.343 17.547 0 32.45-10.139 38.892-26.461 6.442-16.323 2.482-33.907-10.335-45.892zm-3.568 40.404c-3.244 8.219-11.513 17.002-24.99 17.002-7.019 0-13.659-2.69-18.699-7.576l-89.094-86.364c-2.964-2.872-7.694-2.8-10.567.165-2.872 2.963-2.799 7.694.164 10.566l82.796 80.259v232.779h-52.221v-130.403c0-8.661-7.046-15.707-15.706-15.707h-20.967v-64.659c0-40.52-32.965-73.486-73.485-73.486h-8.108c-40.52 0-73.485 32.966-73.485 73.486v64.659h-20.967c-8.66 0-15.706 7.046-15.706 15.707v33.849c0 4.128 3.346 7.473 7.473 7.473s7.473-3.345 7.473-7.473v-33.849c0-.419.341-.761.76-.761h197.012c.419 0 .76.342.76.761v130.299h-198.532v-61.858c0-4.128-3.346-7.473-7.473-7.473s-7.473 3.345-7.473 7.473v61.962h-52.221v-232.779l166.281-161.187c.086-.082.219-.082.305 0l58.528 56.735c2.964 2.873 7.694 2.8 10.567-.165 2.872-2.963 2.799-7.694-.164-10.566l-58.528-56.735c-5.919-5.739-15.191-5.739-21.11 0l-172.58 167.292c-5.04 4.886-11.681 7.576-18.699 7.576-13.477 0-21.745-8.783-24.99-17.002s-3.204-20.282 6.64-29.486l220.033-205.747c.085-.08.215-.08.299 0l220.034 205.747c9.844 9.204 9.884 21.266 6.64 29.486zm-219.846 13.039c-1.108-2.889-3.883-4.796-6.977-4.796s-5.868 1.907-6.977 4.796c-6.409 16.699-14.375 29.303-55.616 36.657v-13.635c0-32.279 26.26-58.54 58.539-58.54h8.108c32.279 0 58.539 26.261 58.539 58.54v13.635c-41.241-7.354-49.208-19.958-55.616-36.657zm55.273 51.763v17.527c0 6.403-.987 12.576-2.794 18.392h-118.921c-1.806-5.815-2.786-11.99-2.786-18.392v-17.534c21.285-3.616 36.391-8.853 47.151-16.327 6.789-4.717 11.549-10.166 15.092-15.738 9.836 15.637 26.276 25.972 62.258 32.072z"/><path d="m256 459.069c16.201 0 29.382-13.18 29.382-29.382s-13.181-29.382-29.382-29.382-29.382 13.181-29.382 29.382 13.181 29.382 29.382 29.382zm0-43.818c7.96 0 14.436 6.476 14.436 14.436s-6.476 14.435-14.436 14.435-14.436-6.476-14.436-14.435c0-7.96 6.476-14.436 14.436-14.436z"/></g></g></g></svg>