<svg id="Icons" height="512" viewBox="0 0 74 74" width="512" xmlns="http://www.w3.org/2000/svg"><path d="m56.27 54.345a1 1 0 0 1 -.74-1.673 17.841 17.841 0 0 0 1.592-2.007 1 1 0 1 1 1.656 1.12 19.841 19.841 0 0 1 -1.769 2.234 1 1 0 0 1 -.739.326z"/><path d="m50.665 58.922a1 1 0 0 1 -.853-.466.989.989 0 0 1 .311-1.371c.293-.182.564-.349.823-.526a1 1 0 1 1 1.047 1.706c-.259.173-.524.339-.791.505a1.018 1.018 0 0 1 -.537.152z"/><path d="m60.811 45.715a.99.99 0 0 1 -.209-.022 1 1 0 0 1 -.771-1.186 15.733 15.733 0 0 0 .339-3.272c0-6.334-3.741-12.161-10.266-15.987a1 1 0 0 1 1.012-1.726c7.047 4.133 11.254 10.755 11.254 17.713a17.813 17.813 0 0 1 -.382 3.688 1 1 0 0 1 -.977.792z"/><path d="m50.65 68.575h-7.36a1 1 0 0 1 -1-1v-5.221a35.189 35.189 0 0 1 -15.88 0v5.221a1 1 0 0 1 -1 1h-7.36a1 1 0 0 1 -1-1v-9.1a22.815 22.815 0 0 1 -9.021-10.09h-2.929a3.1 3.1 0 0 1 -3.1-3.1v-8.1a3.109 3.109 0 0 1 3.1-3.11h2.93a21.547 21.547 0 0 1 5.434-7.4l-1.664-10.24a1 1 0 0 1 1.407-1.068l11.323 5.24a34.386 34.386 0 0 1 3.515-.845 1 1 0 1 1 .365 1.967 31.985 31.985 0 0 0 -3.655.9 1 1 0 0 1 -.718-.046l-9.962-4.61 1.449 8.932a1 1 0 0 1 -.337.919 19.492 19.492 0 0 0 -5.558 7.614 1 1 0 0 1 -.932.637h-3.597a1.106 1.106 0 0 0 -1.1 1.11v8.1a1.1 1.1 0 0 0 1.1 1.1h3.6a1 1 0 0 1 .932.637 20.823 20.823 0 0 0 9.022 10.095 1 1 0 0 1 .4 1.273v8.185h5.36v-5.51a1 1 0 0 1 1.269-.963 33.053 33.053 0 0 0 17.342 0 1 1 0 0 1 1.269.963v5.51h5.36v-8.423a.972.972 0 0 1 .513-1.091 1.039 1.039 0 0 1 .993.033 1 1 0 0 1 .494.841v9.64a1 1 0 0 1 -1.004 1z"/><path d="m62.284 42.291a9.861 9.861 0 0 1 -1.247-.069 1 1 0 0 1 .269-1.982 9.383 9.383 0 0 0 6.2-1.513 6.917 6.917 0 0 0 2.5-4.84 1 1 0 0 1 1.984.248 8.828 8.828 0 0 1 -3.272 6.186 10.712 10.712 0 0 1 -6.434 1.97z"/><path d="m17.5 38.425a3.5 3.5 0 1 1 3.5-3.5 3.5 3.5 0 0 1 -3.5 3.5zm0-5a1.5 1.5 0 1 0 1.5 1.5 1.5 1.5 0 0 0 -1.5-1.5z"/><path d="m45.711 29.985a1 1 0 0 1 -.478-1.879 11 11 0 1 0 -10.466 0 1 1 0 0 1 -.954 1.758 13 13 0 1 1 12.374 0 1 1 0 0 1 -.476.121z"/><path d="m40 19.425a4 4 0 1 1 4-4 1 1 0 0 1 -2 0 2 2 0 1 0 -2 2 1 1 0 0 1 0 2z"/><path d="m40 25.425a4 4 0 0 1 -4-4 1 1 0 1 1 2 0 2 2 0 1 0 2-2 1 1 0 0 1 0-2 4 4 0 0 1 0 8z"/><path d="m40 26.425a1 1 0 0 1 -1-1v-1a1 1 0 1 1 2 0v1a1 1 0 0 1 -1 1z"/><path d="m40 13.425a1 1 0 0 1 -1-1v-1a1 1 0 1 1 2 0v1a1 1 0 0 1 -1 1z"/><path d="m50 29.987h-20a1 1 0 0 1 0-2h20a1 1 0 0 1 0 2z"/></svg>