<?xml version="1.0" encoding="UTF-8"?>
<svg xmlns="http://www.w3.org/2000/svg" id="Layer_3" data-name="Layer 3" viewBox="0 0 64 64" width="512" height="512"><path d="M58,21H57V20a3,3,0,0,0-2-2.816V10a9.01,9.01,0,0,0-9-9H18a9.01,9.01,0,0,0-9,9v7.184A3,3,0,0,0,7,20v1H6a5.006,5.006,0,0,0-5,5V58a5.006,5.006,0,0,0,5,5H58a5.006,5.006,0,0,0,5-5V26A5.006,5.006,0,0,0,58,21ZM11,23h4v3a1,1,0,0,1-1,1H12a1,1,0,0,1-1-1Zm6-5.816V11a2,2,0,0,1,2-2H45a2,2,0,0,1,2,2v6.184A3,3,0,0,0,45,20v1H19V20A3,3,0,0,0,17,17.184ZM49,23h4v3a1,1,0,0,1-1,1H50a1,1,0,0,1-1-1Zm-2-2V20a1,1,0,0,1,1-1h6a1,1,0,0,1,1,1v1ZM18,3H46a7.009,7.009,0,0,1,7,7v7H49V11a4,4,0,0,0-4-4H19a4,4,0,0,0-4,4v6H11V10A7.009,7.009,0,0,1,18,3ZM9,20a1,1,0,0,1,1-1h6a1,1,0,0,1,1,1v1H9ZM6,23H9v3a3,3,0,0,0,3,3h2a3,3,0,0,0,3-3V23H47v3a3,3,0,0,0,3,3h2a3,3,0,0,0,3-3V23h3a3,3,0,0,1,3,3v6H38.619a11.953,11.953,0,0,0-13.238,0H3V26A3,3,0,0,1,6,23ZM42,42A10,10,0,1,1,32,32,10.011,10.011,0,0,1,42,42ZM21.105,37H3V34H23.081A12.009,12.009,0,0,0,21.105,37Zm-.71,2a11.841,11.841,0,0,0,2.686,11H3V39Zm4.986,13a11.953,11.953,0,0,0,13.238,0H61v3H3V52Zm15.538-2a11.841,11.841,0,0,0,2.686-11H61V50ZM42.9,37a12.009,12.009,0,0,0-1.976-3H61v3ZM58,61H6a3,3,0,0,1-3-3V57H61v1A3,3,0,0,1,58,61Z"/><path d="M31,34v1a4,4,0,0,0,0,8v4a2,2,0,0,1-2-2V44H27v1a4,4,0,0,0,4,4v1h2V49a4,4,0,0,0,0-8V37a2,2,0,0,1,2,2v1h2V39a4,4,0,0,0-4-4V34Zm4,11a2,2,0,0,1-2,2V43A2,2,0,0,1,35,45Zm-4-4a2,2,0,0,1,0-4Z"/></svg>
