<svg id="Layer_3" enable-background="new 0 0 64 64" height="512" viewBox="0 0 64 64" width="512" xmlns="http://www.w3.org/2000/svg"><g><path d="m33 38.858c1.72-.447 3-1.999 3-3.858 0-2.206-1.794-4-4-4-1.103 0-2-.897-2-2s.897-2 2-2 2 .897 2 2h2c0-1.859-1.28-3.411-3-3.858v-2.142h-2v2.142c-1.72.447-3 1.999-3 3.858 0 2.206 1.794 4 4 4 1.103 0 2 .897 2 2s-.897 2-2 2-2-.897-2-2h-2c0 1.859 1.28 3.411 3 3.858v2.142h2z"/><path d="m32 19c-7.168 0-13 5.832-13 13h2c0-6.065 4.935-11 11-11z"/><path d="m43 32c0 6.065-4.935 11-11 11v2c7.168 0 13-5.832 13-13z"/><path d="m21.6 8.164c-3.135 1.369-5.934 3.318-8.319 5.792l1.439 1.389c2.203-2.284 4.787-4.084 7.681-5.349z"/><path d="m25.761 6.754c-.704.173-1.404.377-2.082.606l.642 1.895c.624-.211 1.27-.399 1.918-.56z"/><path d="m29.922 6.082c-.683.054-1.383.138-2.08.249l.316 1.975c.644-.104 1.29-.181 1.92-.229z"/><path d="m32 3c7.747 0 15.029 3.017 20.506 8.494.375.375 1.039.375 1.414 0l2.08-2.08v7.586h-7.586l1.971-1.971c.391-.391.391-1.023 0-1.414-4.911-4.911-11.44-7.615-18.385-7.615v2c6.076 0 11.808 2.243 16.249 6.337l-2.956 2.956c-.286.286-.372.716-.217 1.09s.52.617.924.617h11c.552 0 1-.447 1-1v-11c0-.404-.244-.77-.617-.924-.376-.157-.804-.07-1.09.217l-3.091 3.091c-5.765-5.414-13.255-8.384-21.202-8.384-17.093 0-31 13.906-31 31h2c0-15.99 13.009-29 29-29z"/><path d="m50.72 50.044-1.439-1.389c-2.203 2.284-4.787 4.084-7.681 5.349l.801 1.832c3.135-1.369 5.933-3.318 8.319-5.792z"/><path d="m38.239 57.246c.704-.173 1.404-.377 2.082-.606l-.642-1.895c-.624.211-1.27.399-1.918.56z"/><path d="m34.078 57.918c.683-.054 1.383-.138 2.08-.249l-.316-1.975c-.644.104-1.29.181-1.92.229z"/><path d="m61 32c0 15.99-13.009 29-29 29-7.747 0-15.029-3.017-20.506-8.494-.375-.375-1.039-.375-1.414 0l-2.08 2.08v-7.586h7.586l-1.971 1.971c-.391.391-.391 1.023 0 1.414 4.911 4.911 11.44 7.615 18.385 7.615v-2c-6.076 0-11.808-2.243-16.249-6.337l2.956-2.956c.286-.286.372-.716.217-1.09s-.52-.617-.924-.617h-11c-.552 0-1 .447-1 1v11c0 .404.244.77.617.924.374.156.804.069 1.09-.217l3.091-3.091c5.765 5.414 13.255 8.384 21.202 8.384 17.093 0 31-13.906 31-31z"/><path d="m49 32c0-9.374-7.626-17-17-17s-17 7.626-17 17 7.626 17 17 17 17-7.626 17-17zm-17 15c-8.271 0-15-6.729-15-15s6.729-15 15-15 15 6.729 15 15-6.729 15-15 15z"/></g></svg>